g undead_bow
v 0.029674834 -0.033010907 0.087851636
v 0.086375885 -1.66893E-08 0.13524742
v 0.090224 -1.1920928E-08 0.064368114
v 0.028321762 -0.033010915 0.12977147
v 0.05682083 -2.6226044E-08 0.19119348
v 0.010888901 -0.03301092 0.16629867
v -0.044863205 -0.033010922 0.22144477
v -0.020614395 -3.33786E-08 0.25202277
v -0.10909935 -0.033010926 0.26810685
v -0.08834846 -3.8146972E-08 0.29362395
v -0.15030746 -0.033010934 0.31416294
v -0.117420346 -4.053116E-08 0.32475942
v -0.14303596 -0.03301094 0.38445914
v -0.116711274 -4.529953E-08 0.36898232
v -0.10667602 -5.483627E-08 0.4286972
v 0.05220459 -9.536743E-09 0.05875269
v 0.016646728 -0.0330109 0.05963333
v 0.029674834 -0.033010907 0.087851636
v 0.046954498 -2.3841857E-09 -1.9073486E-08
v 0.014882507 -0.033010896 -1.9073486E-08
v -0.01405548 -9.536743E-09 0.08421543
v 0.028321762 -0.033010915 0.12977147
v 0.029674834 -0.033010907 0.087851636
v -0.019149857 -1.1920928E-08 0.114632115
v -0.031417847 -1.66893E-08 0.14942856
v 0.010888901 -0.03301092 0.16629867
v -0.06907623 -2.1457671E-08 0.19276962
v -0.044863205 -0.033010922 0.22144477
v -0.12561889 -2.6226044E-08 0.24780035
v -0.10909935 -0.033010926 0.26810685
v -0.16939521 -3.33786E-08 0.31023392
v -0.16939521 -3.33786E-08 0.31023392
v -0.15030746 -0.033010934 0.31416294
v -0.16035873 -4.529953E-08 0.3872885
v -0.16939521 -3.33786E-08 0.31023392
v -0.15030746 -0.033010934 0.31416294
v -0.14303596 -0.03301094 0.38445914
v -0.16035873 -4.529953E-08 0.3872885
v -0.10667602 -5.483627E-08 0.4286972
v 0.028321762 0.033010874 0.12977153
v -0.01405548 -9.536743E-09 0.08421543
v 0.029674834 0.03301088 0.087851696
v -0.019149857 -1.1920928E-08 0.114632115
v -0.031417847 -1.66893E-08 0.14942856
v 0.010888901 0.03301087 0.16629869
v -0.044863205 0.033010866 0.22144477
v -0.06907623 -2.1457671E-08 0.19276962
v -0.10909935 0.033010866 0.26810685
v -0.12561889 -2.6226044E-08 0.24780035
v -0.15030746 0.03301085 0.31416294
v -0.16939521 -3.33786E-08 0.31023392
v -0.14303596 0.033010848 0.38445914
v -0.16939521 -3.33786E-08 0.31023392
v 0.016646728 0.033010885 0.059633348
v -0.0134373475 -7.152557E-09 0.06051398
v 0.029674834 0.03301088 0.087851696
v 0.014882507 0.033010885 -1.9073486E-08
v -0.016967162 0 -1.9073486E-08
v 0.086375885 -1.66893E-08 0.13524742
v 0.029674834 0.03301088 0.087851696
v 0.090224 -1.1920928E-08 0.064368114
v 0.028321762 0.033010874 0.12977153
v 0.010888901 0.03301087 0.16629869
v 0.05682083 -2.6226044E-08 0.19119348
v -0.020614395 -3.33786E-08 0.25202277
v -0.044863205 0.033010866 0.22144477
v -0.08834846 -3.8146972E-08 0.29362395
v -0.10909935 0.033010866 0.26810685
v -0.117420346 -4.053116E-08 0.32475942
v -0.15030746 0.03301085 0.31416294
v -0.116711274 -4.529953E-08 0.36898232
v -0.14303596 0.033010848 0.38445914
v -0.10667602 -5.483627E-08 0.4286972
v 0.05220459 -9.536743E-09 0.05875269
v 0.016646728 0.033010885 0.059633348
v 0.029674834 0.03301088 0.087851696
v 0.046954498 -2.3841857E-09 -1.9073486E-08
v 0.014882507 0.033010885 -1.9073486E-08
v -0.16939521 -3.33786E-08 0.31023392
v -0.14303596 0.033010848 0.38445914
v -0.16035873 -4.529953E-08 0.3872885
v -0.16035873 -4.529953E-08 0.3872885
v -0.10667602 -5.483627E-08 0.4286972
v 0.016646728 -0.0330109 0.05963333
v -0.0134373475 -7.152557E-09 0.06051398
v 0.029674834 -0.033010907 0.087851636
v 0.014882507 -0.033010896 -1.9073486E-08
v -0.016967162 0 -1.9073486E-08
v -0.1529451 -0.012534175 0.31361604
v -0.16569519 -0.0051729083 -1.9073486E-08
v -0.16569519 -0.005172956 0.31361604
v -0.1529451 -0.012534125 -1.9073486E-08
v -0.1529451 0.0021882604 0.31361604
v -0.1529451 -0.012534125 -1.9073486E-08
v -0.1529451 -0.012534175 0.31361604
v -0.1529451 0.0021883082 -1.9073486E-08
v -0.16569519 -0.005172956 0.31361604
v -0.1529451 0.0021883082 -1.9073486E-08
v -0.1529451 0.0021882604 0.31361604
v -0.16569519 -0.0051729083 -1.9073486E-08
v 0.029674834 -0.033010885 -0.08785167
v 0.086375885 1.4305114E-08 -0.13524745
v 0.028321762 -0.033010885 -0.1297715
v 0.090224 2.3841857E-09 -0.06436815
v 0.05682083 2.1457671E-08 -0.19119346
v 0.010888901 -0.033010874 -0.16629867
v -0.044863205 -0.033010866 -0.22144477
v -0.020614395 2.6226044E-08 -0.25202277
v -0.10909935 -0.033010863 -0.26810685
v -0.08834846 3.33786E-08 -0.29362395
v -0.15030746 -0.033010855 -0.31416297
v -0.117420346 3.8146972E-08 -0.32475948
v -0.14303596 -0.033010848 -0.38445914
v -0.116711274 4.529953E-08 -0.36898232
v -0.10667602 5.483627E-08 -0.42869723
v 0.029674834 -0.033010885 -0.08785167
v 0.05220459 7.152557E-09 -0.058752727
v 0.016646728 -0.03301089 -0.059633348
v 0.046954498 -2.3841857E-09 -1.9073486E-08
v 0.014882507 -0.033010896 -1.9073486E-08
v -0.01405548 1.1920928E-08 -0.08421545
v 0.028321762 -0.033010885 -0.1297715
v -0.019149857 1.4305114E-08 -0.11463213
v 0.029674834 -0.033010885 -0.08785167
v -0.031417847 2.1457671E-08 -0.14942856
v 0.010888901 -0.033010874 -0.16629867
v -0.06907623 2.6226044E-08 -0.19276962
v -0.044863205 -0.033010866 -0.22144477
v -0.12561889 3.5762785E-08 -0.24780037
v -0.10909935 -0.033010863 -0.26810685
v -0.16939521 4.053116E-08 -0.31023398
v -0.16939521 4.053116E-08 -0.31023398
v -0.15030746 -0.033010855 -0.31416297
v -0.16035873 5.00679E-08 -0.38728848
v -0.16939521 4.053116E-08 -0.31023398
v -0.15030746 -0.033010855 -0.31416297
v -0.14303596 -0.033010848 -0.38445914
v -0.10667602 5.483627E-08 -0.42869723
v -0.16035873 5.00679E-08 -0.38728848
v 0.028321762 0.033010904 -0.12977158
v -0.01405548 1.1920928E-08 -0.08421545
v -0.019149857 1.4305114E-08 -0.11463213
v 0.029674834 0.033010904 -0.08785171
v -0.031417847 2.1457671E-08 -0.14942856
v 0.010888901 0.033010915 -0.16629872
v -0.044863205 0.033010922 -0.22144477
v -0.06907623 2.6226044E-08 -0.19276962
v -0.10909935 0.033010922 -0.26810685
v -0.12561889 3.5762785E-08 -0.24780037
v -0.15030746 0.033010934 -0.31416297
v -0.16939521 4.053116E-08 -0.31023398
v -0.16939521 4.053116E-08 -0.31023398
v -0.14303596 0.03301094 -0.38445914
v 0.016646728 0.0330109 -0.059633348
v 0.029674834 0.033010904 -0.08785171
v -0.0134373475 9.536743E-09 -0.06051403
v 0.014882507 0.033010885 -1.9073486E-08
v -0.016967162 0 -1.9073486E-08
v 0.086375885 1.4305114E-08 -0.13524745
v 0.029674834 0.033010904 -0.08785171
v 0.028321762 0.033010904 -0.12977158
v 0.090224 2.3841857E-09 -0.06436815
v 0.010888901 0.033010915 -0.16629872
v 0.05682083 2.1457671E-08 -0.19119346
v -0.020614395 2.6226044E-08 -0.25202277
v -0.044863205 0.033010922 -0.22144477
v -0.08834846 3.33786E-08 -0.29362395
v -0.10909935 0.033010922 -0.26810685
v -0.117420346 3.8146972E-08 -0.32475948
v -0.15030746 0.033010934 -0.31416297
v -0.116711274 4.529953E-08 -0.36898232
v -0.14303596 0.03301094 -0.38445914
v -0.10667602 5.483627E-08 -0.42869723
v 0.05220459 7.152557E-09 -0.058752727
v 0.029674834 0.033010904 -0.08785171
v 0.016646728 0.0330109 -0.059633348
v 0.046954498 -2.3841857E-09 -1.9073486E-08
v 0.014882507 0.033010885 -1.9073486E-08
v -0.14303596 0.03301094 -0.38445914
v -0.16939521 4.053116E-08 -0.31023398
v -0.16035873 5.00679E-08 -0.38728848
v -0.16035873 5.00679E-08 -0.38728848
v -0.10667602 5.483627E-08 -0.42869723
v 0.016646728 -0.03301089 -0.059633348
v 0.029674834 -0.033010885 -0.08785167
v -0.0134373475 9.536743E-09 -0.06051403
v 0.014882507 -0.033010896 -1.9073486E-08
v -0.016967162 0 -1.9073486E-08
v -0.1529451 -0.012534096 -0.3136161
v -0.16569519 -0.0051729083 -1.9073486E-08
v -0.1529451 -0.012534125 -1.9073486E-08
v -0.16569519 -0.0051728818 -0.3136161
v -0.1529451 0.0021883368 -0.3136161
v -0.1529451 -0.012534125 -1.9073486E-08
v -0.1529451 0.0021883082 -1.9073486E-08
v -0.1529451 -0.012534096 -0.3136161
v -0.16569519 -0.0051728818 -0.3136161
v -0.1529451 0.0021883082 -1.9073486E-08
v -0.16569519 -0.0051729083 -1.9073486E-08
v -0.1529451 0.0021883368 -0.3136161
vt 0.90564215 0.38538578
vt 0.9481972 0.4270015
vt 0.9594941 0.38260293
vt 0.8996191 0.41320685
vt 0.9266934 0.46208623
vt 0.88635236 0.43688396
vt 0.85086995 0.47463444
vt 0.87884593 0.5056385
vt 0.8116625 0.5086652
vt 0.8375117 0.5387987
vt 0.78460026 0.5364865
vt 0.81653965 0.56075966
vt 0.768204 0.57391477
vt 0.798411 0.5907185
vt 0.7616588 0.6190479
vt 0.942922 0.36659655
vt 0.90284145 0.36529422
vt 0.90564215 0.38538578
vt 0.9435898 0.3281099
vt 0.9047631 0.32572103
vt 0.8627013 0.37647817
vt 0.8996191 0.41320685
vt 0.90564215 0.38538578
vt 0.8570187 0.3951455
vt 0.8468385 0.41659334
vt 0.88635236 0.43688396
vt 0.8224689 0.44482735
vt 0.85086995 0.47463444
vt 0.7859525 0.48123387
vt 0.8116625 0.5086652
vt 0.7525816 0.52018976
vt 0.7525816 0.52018976
vt 0.78460026 0.5364865
vt 0.7371134 0.57405543
vt 0.7525816 0.52018976
vt 0.78460026 0.5364865
vt 0.768204 0.57391477
vt 0.7371134 0.57405543
vt 0.7616588 0.6190479
vt 0.8996403 0.41352823
vt 0.8627013 0.37647817
vt 0.9057637 0.3857286
vt 0.8570187 0.3951455
vt 0.8468385 0.41659334
vt 0.88628805 0.43715766
vt 0.8506686 0.47478023
vt 0.8224689 0.44482735
vt 0.8113378 0.5086695
vt 0.7859525 0.48123387
vt 0.78417504 0.5363934
vt 0.7525816 0.52018976
vt 0.7676438 0.57376313
vt 0.7525816 0.52018976
vt 0.90303516 0.36562675
vt 0.86462885 0.3622231
vt 0.9057637 0.3857286
vt 0.90509945 0.32606006
vt 0.8663796 0.32275414
vt 0.9481972 0.4270015
vt 0.9057637 0.3857286
vt 0.9594941 0.38260293
vt 0.8996403 0.41352823
vt 0.88628805 0.43715766
vt 0.9266934 0.46208623
vt 0.87884593 0.5056385
vt 0.8506686 0.47478023
vt 0.8375117 0.5387987
vt 0.8113378 0.5086695
vt 0.81653965 0.56075966
vt 0.78417504 0.5363934
vt 0.798411 0.5907185
vt 0.7676438 0.57376313
vt 0.7616588 0.6190479
vt 0.942922 0.36659655
vt 0.90303516 0.36562675
vt 0.9057637 0.3857286
vt 0.9435898 0.3281099
vt 0.90509945 0.32606006
vt 0.7525816 0.52018976
vt 0.7676438 0.57376313
vt 0.7371134 0.57405543
vt 0.7371134 0.57405543
vt 0.7616588 0.6190479
vt 0.90284145 0.36529422
vt 0.86462885 0.3622231
vt 0.90564215 0.38538578
vt 0.9047631 0.32572103
vt 0.8663796 0.32275414
vt 0.9942597 0.4723966
vt 0.98404086 0.254703
vt 0.98404086 0.4723966
vt 0.9942597 0.254703
vt 0.9738556 0.4723966
vt 0.963603 0.254703
vt 0.963603 0.4723966
vt 0.9738556 0.254703
vt 0.98404086 0.4723966
vt 0.9738556 0.254703
vt 0.9738556 0.4723966
vt 0.98404086 0.254703
vt 0.90564215 0.38538578
vt 0.9481972 0.4270015
vt 0.8996191 0.41320685
vt 0.9594941 0.38260293
vt 0.9266934 0.46208623
vt 0.88635236 0.43688396
vt 0.85086995 0.47463444
vt 0.87884593 0.5056385
vt 0.8116625 0.5086652
vt 0.8375117 0.5387987
vt 0.78460026 0.5364865
vt 0.81653965 0.56075966
vt 0.768204 0.57391477
vt 0.798411 0.5907185
vt 0.7616588 0.6190479
vt 0.90564215 0.38538578
vt 0.942922 0.36659655
vt 0.90284145 0.36529422
vt 0.9435898 0.3281099
vt 0.9047631 0.32572103
vt 0.8627013 0.37647817
vt 0.8996191 0.41320685
vt 0.8570187 0.3951455
vt 0.90564215 0.38538578
vt 0.8468385 0.41659334
vt 0.88635236 0.43688396
vt 0.8224689 0.44482735
vt 0.85086995 0.47463444
vt 0.7859525 0.48123387
vt 0.8116625 0.5086652
vt 0.7525816 0.52018976
vt 0.7525816 0.52018976
vt 0.78460026 0.5364865
vt 0.7371134 0.57405543
vt 0.7525816 0.52018976
vt 0.78460026 0.5364865
vt 0.768204 0.57391477
vt 0.7616588 0.6190479
vt 0.7371134 0.57405543
vt 0.8996403 0.41352823
vt 0.8627013 0.37647817
vt 0.8570187 0.3951455
vt 0.9057637 0.3857286
vt 0.8468385 0.41659334
vt 0.88628805 0.43715766
vt 0.8506686 0.47478023
vt 0.8224689 0.44482735
vt 0.8113378 0.5086695
vt 0.7859525 0.48123387
vt 0.78417504 0.5363934
vt 0.7525816 0.52018976
vt 0.7525816 0.52018976
vt 0.7676438 0.57376313
vt 0.90303516 0.36562675
vt 0.9057637 0.3857286
vt 0.86462885 0.3622231
vt 0.90509945 0.32606006
vt 0.8663796 0.32275414
vt 0.9481972 0.4270015
vt 0.9057637 0.3857286
vt 0.8996403 0.41352823
vt 0.9594941 0.38260293
vt 0.88628805 0.43715766
vt 0.9266934 0.46208623
vt 0.87884593 0.5056385
vt 0.8506686 0.47478023
vt 0.8375117 0.5387987
vt 0.8113378 0.5086695
vt 0.81653965 0.56075966
vt 0.78417504 0.5363934
vt 0.798411 0.5907185
vt 0.7676438 0.57376313
vt 0.7616588 0.6190479
vt 0.942922 0.36659655
vt 0.9057637 0.3857286
vt 0.90303516 0.36562675
vt 0.9435898 0.3281099
vt 0.90509945 0.32606006
vt 0.7676438 0.57376313
vt 0.7525816 0.52018976
vt 0.7371134 0.57405543
vt 0.7371134 0.57405543
vt 0.7616588 0.6190479
vt 0.90284145 0.36529422
vt 0.90564215 0.38538578
vt 0.86462885 0.3622231
vt 0.9047631 0.32572103
vt 0.8663796 0.32275414
vt 0.9942597 0.4723966
vt 0.98404086 0.254703
vt 0.9942597 0.254703
vt 0.98404086 0.4723966
vt 0.9738556 0.4723966
vt 0.963603 0.254703
vt 0.9738556 0.254703
vt 0.963603 0.4723966
vt 0.98404086 0.4723966
vt 0.9738556 0.254703
vt 0.98404086 0.254703
vt 0.9738556 0.4723966
vn 0.46556664 -0.8460291 -0.2597735
vn 0.4831914 -0.87023747 0.095983095
vn 0.32633203 -0.86679655 -0.3770558
vn 0.48186654 -0.8606993 0.16432084
vn 0.4361831 -0.8305839 0.3462294
vn 0.43691966 -0.8435162 0.31238064
vn 0.38962266 -0.78889906 0.47521836
vn 0.38422963 -0.74418306 0.5464056
vn 0.4297445 -0.72573584 0.5372404
vn 0.48022878 -0.7003887 0.5280493
vn 0.6178167 -0.72215116 0.3111275
vn 0.7036632 -0.69623816 0.14181152
vn 0.74909025 -0.65866816 -0.07085162
vn 0.76393527 -0.64158595 -0.0690688
vn 0.7461759 -0.6538326 -0.12539698
vn 0.5138646 -0.7670317 -0.38419473
vn 0.6858132 -0.716497 -0.1276417
vn 0.26758966 -0.9348174 -0.23347881
vn 0.69865596 -0.71545786 0
vn 0.71723306 -0.69683343 0
vn -0.62974787 -0.7759454 0.03641839
vn -0.55284667 -0.82183444 -0.13765424
vn -0.42874858 -0.88555384 -0.17879882
vn -0.5354263 -0.83324003 -0.13794857
vn -0.5060624 -0.8157647 -0.2800516
vn -0.48750463 -0.78793913 -0.37615323
vn -0.4624401 -0.764987 -0.4482679
vn -0.46466294 -0.71029437 -0.5287441
vn -0.52928525 -0.66533536 -0.5264846
vn -0.5978831 -0.56632555 -0.5672839
vn -0.76828676 -0.5459433 -0.3341876
vn -0.8488053 -0.31411272 -0.42527947
vn -0.853889 -0.5006218 -0.14230715
vn -0.92217803 -0.24579693 0.29861626
vn -0.97140527 -0.14609472 -0.18715821
vn -0.853889 -0.5006218 -0.14230715
vn -0.776837 -0.44577262 0.44475955
vn -0.8318454 -0.27627203 0.48135954
vn -0.6107694 0 0.79180855
vn -0.5528465 0.8218346 -0.13765405
vn -0.6297477 0.7759455 0.036418535
vn -0.42874846 0.885554 -0.17879839
vn -0.5354261 0.83324015 -0.1379483
vn -0.5011731 0.7995472 -0.3309831
vn -0.48601246 0.8012368 -0.34901497
vn -0.4432789 0.76216817 -0.47180882
vn -0.4819948 0.70952857 -0.51405275
vn -0.5105273 0.6659455 -0.5439472
vn -0.6212611 0.5739327 -0.53351283
vn -0.7629686 0.5558522 -0.33001095
vn -0.9196331 0.28858215 -0.26644966
vn -0.8197073 0.46833083 0.32976696
vn -0.9600838 0.27304098 -0.06072783
vn -0.6986611 0.7093398 0.093325965
vn -0.73260206 0.68049526 0.014844194
vn -0.60426867 0.7863014 0.1288005
vn -0.72931135 0.68418187 0
vn -0.719651 0.69433606 0
vn 0.4823218 0.86639464 0.12932938
vn 0.46556666 0.8460294 -0.25977305
vn 0.32633203 0.8667968 -0.3770552
vn 0.4821749 0.8678439 0.11980944
vn 0.4395655 0.82831043 0.347396
vn 0.4141084 0.8402108 0.35008588
vn 0.3829343 0.784448 0.48785502
vn 0.40503722 0.7447116 0.5304238
vn 0.42705077 0.7257517 0.5393627
vn 0.49296498 0.7013043 0.5149348
vn 0.6087826 0.72186923 0.32907224
vn 0.69552654 0.7055952 0.13556701
vn 0.7403966 0.6683074 -0.07195759
vn 0.75386995 0.6490431 -0.1020943
vn 0.74617594 0.6538327 -0.12539676
vn 0.51386464 0.767032 -0.38419408
vn 0.6858132 0.716497 -0.12764135
vn 0.26758963 0.9348175 -0.2334783
vn 0.69865596 0.71545786 0
vn 0.71723306 0.69683343 0
vn -0.9600838 0.27304098 -0.06072783
vn -0.8197073 0.46833083 0.32976696
vn -0.9506878 -0.03771158 0.30784822
vn -0.7743401 0.18019702 0.6065694
vn -0.6107694 0 0.79180855
vn -0.6986611 -0.7093398 0.0933259
vn -0.7326022 -0.68049514 0.014844081
vn -0.60426867 -0.78630143 0.12880038
vn -0.72931147 -0.68418187 0
vn -0.7196511 -0.69433594 0
vn -0.49999747 -0.86602694 0
vn -0.49999738 -0.86602694 0
vn -0.49999747 -0.86602694 0
vn -0.49999738 -0.86602694 0
vn 1 0 0
vn 1 0 0
vn 1 0 0
vn 1 0 0
vn -0.49999738 0.86602694 0
vn -0.4999974 0.86602694 0
vn -0.49999738 0.86602694 0
vn -0.49999738 0.86602694 0
vn 0.4655667 -0.8460292 0.25977337
vn 0.4831914 -0.87023747 -0.09598338
vn 0.4818665 -0.86069924 -0.16432115
vn 0.326332 -0.8667966 0.3770556
vn 0.43618312 -0.8305838 -0.34622964
vn 0.4369197 -0.84351605 -0.31238094
vn 0.38962272 -0.78889894 -0.47521847
vn 0.38422963 -0.744183 -0.5464057
vn 0.42974457 -0.7257357 -0.5372403
vn 0.48022893 -0.70038867 -0.5280492
vn 0.6178167 -0.7221512 -0.3111274
vn 0.7036632 -0.6962383 -0.1418115
vn 0.74909025 -0.65866816 0.07085145
vn 0.76393527 -0.64158595 0.06906858
vn 0.74617606 -0.6538326 0.1253967
vn 0.2675897 -0.9348174 0.23347859
vn 0.51386464 -0.7670317 0.38419446
vn 0.6858132 -0.71649694 0.12764142
vn 0.69865596 -0.71545786 0
vn 0.71723306 -0.69683343 0
vn -0.62974787 -0.7759454 -0.03641853
vn -0.55284667 -0.8218345 0.1376541
vn -0.53542626 -0.8332401 0.13794841
vn -0.42874858 -0.88555384 0.17879872
vn -0.50606245 -0.8157647 0.28005147
vn -0.4875047 -0.78793913 0.37615305
vn -0.4624401 -0.764987 0.44826773
vn -0.46466303 -0.7102943 0.528744
vn -0.5292854 -0.66533524 0.52648455
vn -0.5978834 -0.5663255 0.5672838
vn -0.76828694 -0.54594314 0.33418736
vn -0.8488055 -0.31411272 0.42527917
vn -0.85388917 -0.50062174 0.1423069
vn -0.92217803 -0.24579674 -0.2986163
vn -0.97140527 -0.14609465 0.18715802
vn -0.85388917 -0.50062174 0.1423069
vn -0.7768372 -0.4457722 -0.44475946
vn -0.61077005 0 -0.791808
vn -0.8318456 -0.27627194 -0.4813593
vn -0.55284643 0.8218346 0.1376543
vn -0.6297478 0.7759454 -0.036418334
vn -0.53542596 0.8332403 0.13794853
vn -0.42874855 0.88555396 0.1787987
vn -0.50117284 0.7995472 0.33098328
vn -0.48601228 0.8012368 0.34901527
vn -0.44327885 0.7621681 0.471809
vn -0.48199487 0.7095284 0.5140529
vn -0.5105274 0.6659452 0.54394734
vn -0.62126136 0.5739324 0.5335129
vn -0.76296884 0.5558518 0.33001098
vn -0.9196331 0.28858197 0.26644954
vn -0.9600838 0.27304083 0.06072773
vn -0.8197075 0.4683306 -0.32976678
vn -0.6986611 0.70933974 -0.09332573
vn -0.6042687 0.78630126 -0.12880021
vn -0.73260206 0.68049526 -0.014844033
vn -0.72931135 0.68418187 0
vn -0.719651 0.69433606 0
vn 0.4823218 0.86639464 -0.12932925
vn 0.4655667 0.8460292 0.25977322
vn 0.4821749 0.8678439 -0.11980926
vn 0.32633212 0.86679673 0.37705553
vn 0.43956563 0.8283104 -0.347396
vn 0.4141086 0.8402107 -0.35008588
vn 0.38293448 0.78444797 -0.48785505
vn 0.4050372 0.7447117 -0.53042376
vn 0.4270508 0.7257519 -0.53936243
vn 0.49296495 0.7013047 -0.51493436
vn 0.60878277 0.72186935 -0.32907173
vn 0.69552654 0.70559514 -0.13556665
vn 0.7403967 0.66830736 0.07195776
vn 0.75386995 0.6490431 0.10209446
vn 0.74617594 0.6538325 0.12539689
vn 0.5138647 0.7670318 0.38419425
vn 0.2675897 0.9348174 0.23347846
vn 0.6858132 0.716497 0.12764154
vn 0.69865596 0.71545786 0
vn 0.71723306 0.69683343 0
vn -0.8197075 0.4683306 -0.32976678
vn -0.9600838 0.27304083 0.06072773
vn -0.9506878 -0.037711713 -0.3078482
vn -0.77434045 0.18019697 -0.606569
vn -0.61077005 0 -0.791808
vn -0.6986611 -0.7093398 -0.09332605
vn -0.6042687 -0.7863014 -0.12880051
vn -0.7326022 -0.68049514 -0.014844254
vn -0.72931147 -0.68418187 0
vn -0.7196511 -0.69433594 0
vn -0.4999972 -0.86602694 0
vn -0.49999738 -0.86602694 0
vn -0.49999738 -0.86602694 0
vn -0.49999723 -0.86602706 0
vn 1 0 0
vn 1 0 0
vn 1 0 0
vn 1 0 0
vn -0.49999738 0.86602694 0
vn -0.4999974 0.86602694 0
vn -0.49999738 0.86602694 0
vn -0.49999747 0.86602694 0
g undead_bow_0
f 3/3/3 2/2/2 1/1/1
f 4/4/4 1/1/1 2/2/2
f 2/2/2 5/5/5 4/4/4
f 6/6/6 4/4/4 5/5/5
f 6/6/6 5/5/5 7/7/7
f 8/8/8 7/7/7 5/5/5
f 7/7/7 8/8/8 9/9/9
f 10/10/10 9/9/9 8/8/8
f 9/9/9 10/10/10 11/11/11
f 12/12/12 11/11/11 10/10/10
f 11/11/11 12/12/12 13/13/13
f 14/14/14 13/13/13 12/12/12
f 15/15/15 13/13/13 14/14/14
f 17/17/17 16/16/16 1/1/1
f 3/3/3 18/18/18 16/16/16
f 16/16/16 17/17/17 19/19/19
f 20/20/20 19/19/19 17/17/17
f 23/23/23 22/22/22 21/21/21
f 24/24/24 21/21/21 22/22/22
f 24/24/24 22/22/22 25/25/25
f 26/26/26 25/25/25 22/22/22
f 25/25/25 26/26/26 27/27/27
f 28/28/28 27/27/27 26/26/26
f 27/27/27 28/28/28 29/29/29
f 30/30/30 29/29/29 28/28/28
f 29/29/29 30/30/30 31/31/31
f 33/33/33 32/32/32 30/30/30
f 35/35/35 33/33/33 34/34/34
f 37/37/37 34/34/34 36/36/36
f 39/39/39 38/38/38 37/37/37
f 42/42/42 41/41/41 40/40/40
f 43/43/43 40/40/40 41/41/41
f 43/43/43 44/44/44 40/40/40
f 45/45/45 40/40/40 44/44/44
f 45/45/45 44/44/44 46/46/46
f 47/47/47 46/46/46 44/44/44
f 46/46/46 47/47/47 48/48/48
f 49/49/49 48/48/48 47/47/47
f 48/48/48 49/49/49 50/50/50
f 51/51/51 50/50/50 49/49/49
f 50/50/50 53/53/53 52/52/52
f 55/55/55 41/41/41 54/54/54
f 56/56/56 54/54/54 41/41/41
f 54/54/54 57/57/57 55/55/55
f 58/58/58 55/55/55 57/57/57
f 61/61/61 60/60/60 59/59/59
f 62/62/62 59/59/59 60/60/60
f 62/62/62 63/63/63 59/59/59
f 64/64/64 59/59/59 63/63/63
f 64/64/64 63/63/63 65/65/65
f 66/66/66 65/65/65 63/63/63
f 65/65/65 66/66/66 67/67/67
f 68/68/68 67/67/67 66/66/66
f 67/67/67 68/68/68 69/69/69
f 70/70/70 69/69/69 68/68/68
f 69/69/69 70/70/70 71/71/71
f 72/72/72 71/71/71 70/70/70
f 73/73/73 71/71/71 72/72/72
f 75/75/75 60/60/60 74/74/74
f 61/61/61 74/74/74 76/76/76
f 74/74/74 77/77/77 75/75/75
f 78/78/78 75/75/75 77/77/77
f 81/81/81 80/80/80 79/79/79
f 83/83/83 80/80/80 82/82/82
f 85/85/85 84/84/84 21/21/21
f 86/86/86 21/21/21 84/84/84
f 84/84/84 85/85/85 87/87/87
f 88/88/88 87/87/87 85/85/85
f 91/91/91 90/90/90 89/89/89
f 92/92/92 89/89/89 90/90/90
f 95/95/95 94/94/94 93/93/93
f 96/96/96 93/93/93 94/94/94
f 99/99/99 98/98/98 97/97/97
f 100/100/100 97/97/97 98/98/98
f 103/103/103 102/102/102 101/101/101
f 104/104/104 101/101/101 102/102/102
f 102/102/102 103/103/103 105/105/105
f 106/106/106 105/105/105 103/103/103
f 106/106/106 107/107/107 105/105/105
f 108/108/108 105/105/105 107/107/107
f 107/107/107 109/109/109 108/108/108
f 110/110/110 108/108/108 109/109/109
f 109/109/109 111/111/111 110/110/110
f 112/112/112 110/110/110 111/111/111
f 111/111/111 113/113/113 112/112/112
f 114/114/114 112/112/112 113/113/113
f 113/113/113 115/115/115 114/114/114
f 104/104/104 117/117/117 116/116/116
f 118/118/118 101/101/101 117/117/117
f 117/117/117 119/119/119 118/118/118
f 120/120/120 118/118/118 119/119/119
f 123/123/123 122/122/122 121/121/121
f 124/124/124 121/121/121 122/122/122
f 123/123/123 125/125/125 122/122/122
f 126/126/126 122/122/122 125/125/125
f 125/125/125 127/127/127 126/126/126
f 128/128/128 126/126/126 127/127/127
f 127/127/127 129/129/129 128/128/128
f 130/130/130 128/128/128 129/129/129
f 129/129/129 131/131/131 130/130/130
f 133/133/133 130/130/130 132/132/132
f 135/135/135 134/134/134 133/133/133
f 137/137/137 136/136/136 134/134/134
f 139/139/139 138/138/138 137/137/137
f 142/142/142 141/141/141 140/140/140
f 143/143/143 140/140/140 141/141/141
f 142/142/142 140/140/140 144/144/144
f 145/145/145 144/144/144 140/140/140
f 145/145/145 146/146/146 144/144/144
f 147/147/147 144/144/144 146/146/146
f 146/146/146 148/148/148 147/147/147
f 149/149/149 147/147/147 148/148/148
f 148/148/148 150/150/150 149/149/149
f 151/151/151 149/149/149 150/150/150
f 150/150/150 153/153/153 152/152/152
f 155/155/155 141/141/141 154/154/154
f 156/156/156 154/154/154 141/141/141
f 154/154/154 156/156/156 157/157/157
f 158/158/158 157/157/157 156/156/156
f 161/161/161 160/160/160 159/159/159
f 162/162/162 159/159/159 160/160/160
f 161/161/161 159/159/159 163/163/163
f 164/164/164 163/163/163 159/159/159
f 164/164/164 165/165/165 163/163/163
f 166/166/166 163/163/163 165/165/165
f 165/165/165 167/167/167 166/166/166
f 168/168/168 166/166/166 167/167/167
f 167/167/167 169/169/169 168/168/168
f 170/170/170 168/168/168 169/169/169
f 169/169/169 171/171/171 170/170/170
f 172/172/172 170/170/170 171/171/171
f 171/171/171 173/173/173 172/172/172
f 162/162/162 175/175/175 174/174/174
f 176/176/176 174/174/174 160/160/160
f 174/174/174 176/176/176 177/177/177
f 178/178/178 177/177/177 176/176/176
f 181/181/181 180/180/180 179/179/179
f 179/179/179 183/183/183 182/182/182
f 185/185/185 184/184/184 121/121/121
f 186/186/186 121/121/121 184/184/184
f 184/184/184 187/187/187 186/186/186
f 188/188/188 186/186/186 187/187/187
f 191/191/191 190/190/190 189/189/189
f 192/192/192 189/189/189 190/190/190
f 195/195/195 194/194/194 193/193/193
f 196/196/196 193/193/193 194/194/194
f 199/199/199 198/198/198 197/197/197
f 200/200/200 197/197/197 198/198/198
