g shield
v 0.0026335525 0.10169641 0.37979698
v -0.12716629 0.090560645 0.254715
v -0.012301884 0.15376283 0.29926464
v -0.11043909 0.14001556 0.15260217
v -0.021182785 0.18057843 0.1656588
v 0.1674095 0.21616721 0.19053917
v 0.13632008 0.17642057 0.33803096
v 0.28615737 0.14368814 0.35939592
v 0.34658438 0.16841283 0.23963243
v -0.19476102 0.06889019 0.088646084
v -0.1100156 0.12324585 -0.0282196
v -0.18226436 0.04944102 -0.029811887
v -0.14918017 0.02929114 -0.14411932
v -0.043008707 0.08143413 -0.19174303
v -0.024150409 0.0010636151 -0.27135226
v 0.10275276 0.053806685 -0.28828418
v 0.04715677 0.12120647 -0.1833326
v 0.1429161 -0.020177074 -0.33658257
v 0.25632578 0.07271654 -0.27474874
v 0.26432273 -0.02732314 -0.33126613
v 0.23822835 0.09367645 0.4272957
v 0.4052955 0.072435305 0.36206558
v 0.1168211 0.10082204 0.42197913
v 0.3785109 -0.02819704 -0.28908378
v 0.4012017 0.043740597 -0.22810215
v 0.23354949 0.15870696 -0.14721683
v 0.41488287 0.10907692 -0.10914756
v 0.50831145 -0.017061096 -0.16400161
v 0.49970463 0.06305323 -0.082314536
v 0.57590574 0.0046091555 0.002067065
v 0.5005663 0.10259083 0.094858825
v 0.5634091 0.024058072 0.120525144
v 0.53032506 0.044207983 0.23483223
v 0.43228424 0.12162586 0.2619801
v 0.39153412 0.16062866 0.06363437
v 0.21931152 0.18266122 -0.07124908
v 0.2925185 0.19425687 0.038524173
v 0.18345153 0.21272771 0.11038809
v 0.0041939733 0.17327584 -0.014366465
v 0.10974564 0.200478 0.0016749906
v 0.0026335525 0.10169641 0.37979698
v -0.032386895 0.06521175 0.28834367
v -0.12716629 0.090560645 0.254715
v 0.1168211 0.10082204 0.42197913
v 0.12497978 0.068662696 0.37608463
v 0.23822835 0.09367645 0.4272957
v 0.3034508 0.053779647 0.35605246
v 0.4052955 0.072435305 0.36206558
v 0.43135726 0.030775508 0.26323605
v 0.53032506 0.044207983 0.23483223
v 0.4784026 0.011580877 0.16084228
v 0.5634091 0.024058072 0.120525144
v -0.115606725 0.049393967 0.15296139
v -0.19476102 0.06889019 0.088646084
v -0.12050022 0.031967867 0.040096384
v -0.18226436 0.04944102 -0.029811887
v -0.10037658 0.014484791 -0.062670246
v -0.14918017 0.02929114 -0.14411932
v -0.053330496 -0.004709847 -0.165064
v -0.024150409 0.0010636151 -0.27135226
v 0.07457548 -0.027714172 -0.25788075
v 0.1429161 -0.020177074 -0.33658257
v 0.25304642 -0.04259797 -0.2779123
v 0.26432273 -0.02732314 -0.33126613
v 0.41041282 -0.039146207 -0.19017158
v 0.3785109 -0.02819704 -0.28908378
v 0.50831145 -0.017061096 -0.16400161
v 0.49363342 -0.023328308 -0.054789342
v 0.57590574 0.0046091555 0.002067065
v 0.49852702 -0.0059022233 0.058076058
v 0.2821985 0.10819869 0.18858416
v 0.01911972 0.11715396 0.13554418
v 0.13771139 0.123924635 0.22818328
v 0.3034508 0.053779647 0.35605246
v 0.12497978 0.068662696 0.37608463
v -0.032386895 0.06521175 0.28834367
v -0.115606725 0.049393967 0.15296139
v -0.002600746 0.09684377 -0.0026941346
v -0.12050022 0.031967867 0.040096384
v -0.10037658 0.014484791 -0.062670246
v 0.0695533 0.07333845 -0.12200647
v -0.053330496 -0.004709847 -0.165064
v 0.07457548 -0.027714172 -0.25788075
v 0.21404049 0.057612102 -0.16160564
v 0.25304642 -0.04259797 -0.2779123
v 0.33263266 0.06438311 -0.068966575
v 0.41041282 -0.039146207 -0.19017158
v 0.49363342 -0.023328308 -0.054789342
v 0.354352 0.08469322 0.069271795
v 0.49852702 -0.0059022233 0.058076058
v 0.4784026 0.011580877 0.16084228
v 0.43135726 0.030775508 0.26323605
v 0.2925185 0.19425687 0.038524173
v 0.18345153 0.21272771 0.11038809
v 0.21191338 0.32139683 0.0011103469
v 0.2925185 0.19425687 0.038524173
v 0.21191338 0.32139683 0.0011103469
v 0.21931152 0.18266122 -0.07124908
v 0.21191338 0.32139683 0.0011103469
v 0.10974564 0.200478 0.0016749906
v 0.21931152 0.18266122 -0.07124908
v 0.18345153 0.21272771 0.11038809
v 0.10974564 0.200478 0.0016749906
v 0.21191338 0.32139683 0.0011103469
v 0.094479695 0.03124329 0.17763999
v 0.20608713 0.02179173 0.20110317
v 0.18039201 0.108014286 0.3832365
v 0.0687842 0.11746582 0.3597733
v 0.20293444 0.0016465187 0.20798516
v 0.1766264 0.089049965 0.39350775
v 0.0913269 0.011098041 0.18452212
v 0.065018535 0.09850169 0.3700446
v 0.094479695 0.03124329 0.17763999
v 0.0687842 0.11746582 0.3597733
v 0.22958812 -0.03584161 0.060066245
v 0.11798029 -0.026389914 0.036603186
v 0.26105222 -0.053589985 -0.090716034
v 0.14944454 -0.044138335 -0.11417919
v 0.19816796 -0.0045029446 -0.30480328
v 0.3097757 -0.013954615 -0.28134018
v 0.26285174 -0.03215874 -0.09064281
v 0.31083447 0.007581863 -0.27770126
v 0.1992268 0.017033504 -0.30116436
v 0.15124401 -0.022707088 -0.11410581
v 0.12044677 -0.005592346 0.0332494
v 0.23205431 -0.015044017 0.056712493
v 0.1992268 0.017033504 -0.30116436
v 0.15124401 -0.022707088 -0.11410581
v 0.12044677 -0.005592346 0.0332494
vt 0.9103855 0.7485628
vt 0.95586574 0.7185254
vt 0.9161184 0.72214544
vt 0.9521612 0.68571794
vt 0.9254937 0.6854928
vt 0.8720294 0.68235165
vt 0.8720287 0.7239677
vt 0.8280548 0.72215354
vt 0.81902707 0.6854471
vt 0.9852706 0.67272145
vt 0.9620396 0.63477814
vt 0.9903225 0.63477933
vt 0.98527515 0.59683615
vt 0.95216715 0.58383673
vt 0.9558748 0.55102867
vt 0.916129 0.54740226
vt 0.9254991 0.58406
vt 0.9103986 0.5209807
vt 0.8720311 0.54570353
vt 0.8720387 0.5141985
vt 0.83368695 0.7485704
vt 0.7882067 0.718523
vt 0.8720387 0.75533503
vt 0.8336743 0.52097315
vt 0.82804465 0.54739463
vt 0.8720294 0.58719945
vt 0.8190218 0.5841063
vt 0.78819764 0.5510316
vt 0.7920008 0.5838361
vt 0.75880826 0.5968432
vt 0.782174 0.63477814
vt 0.7537762 0.63477933
vt 0.75881183 0.6727145
vt 0.79200566 0.6857185
vt 0.8163854 0.63477707
vt 0.8719962 0.60487247
vt 0.8417083 0.6347764
vt 0.87200725 0.66448206
vt 0.9284946 0.6347764
vt 0.90201914 0.6347764
vt 0.83745277 0.9852842
vt 0.82324815 0.95938206
vt 0.7936698 0.9568639
vt 0.8729056 0.99118197
vt 0.8729001 0.9756832
vt 0.9083307 0.9852091
vt 0.9224919 0.95927477
vt 0.9520012 0.9567045
vt 0.95400333 0.92522657
vt 0.98079014 0.91322225
vt 0.96255803 0.8929131
vt 0.9846674 0.8774841
vt 0.7914809 0.9253912
vt 0.7646259 0.9134263
vt 0.78266394 0.8929787
vt 0.7605666 0.8774841
vt 0.78266394 0.8619889
vt 0.7646259 0.841542
vt 0.7914809 0.8295771
vt 0.7936698 0.7981031
vt 0.82324815 0.79558575
vt 0.83745277 0.76968354
vt 0.8729001 0.77928513
vt 0.8729062 0.7637863
vt 0.9224924 0.7956935
vt 0.9083315 0.7697585
vt 0.9520019 0.79826367
vt 0.95400417 0.82974184
vt 0.98079014 0.841746
vt 0.96255803 0.8620551
vt 0.90464795 0.91393733
vt 0.83127904 0.9137064
vt 0.86791 0.9326265
vt 0.9224919 0.95927477
vt 0.8729001 0.9756832
vt 0.82324815 0.95938206
vt 0.7914809 0.9253912
vt 0.8181349 0.8774841
vt 0.78266394 0.8929787
vt 0.78266394 0.8619889
vt 0.83127904 0.84126127
vt 0.7914809 0.8295771
vt 0.82324815 0.79558575
vt 0.8679105 0.82234174
vt 0.8729001 0.77928513
vt 0.90464866 0.84103036
vt 0.9224924 0.7956935
vt 0.95400417 0.82974184
vt 0.917976 0.8774841
vt 0.96255803 0.8620551
vt 0.96255803 0.8929131
vt 0.95400333 0.92522657
vt 0.8417083 0.6347764
vt 0.87200725 0.66448206
vt 0.87169254 0.6347759
vt 0.8417083 0.6347764
vt 0.87169254 0.6347759
vt 0.8719962 0.60487247
vt 0.87169254 0.6347759
vt 0.90201914 0.6347764
vt 0.8719962 0.60487247
vt 0.87200725 0.66448206
vt 0.90201914 0.6347764
vt 0.87169254 0.6347759
vt 0.66820997 0.51509744
vt 0.66820997 0.5475918
vt 0.7219497 0.5475918
vt 0.7219497 0.51509744
vt 0.66820997 0.553768
vt 0.7219497 0.553768
vt 0.66820997 0.5860334
vt 0.7219497 0.58603334
vt 0.66820997 0.59199345
vt 0.7219497 0.59199345
vt 0.62695986 0.553768
vt 0.62695986 0.58603334
vt 0.586893 0.553768
vt 0.586893 0.58603334
vt 0.53315467 0.5860334
vt 0.53315467 0.553768
vt 0.586893 0.5475918
vt 0.53315467 0.5475918
vt 0.53315467 0.51509744
vt 0.5868931 0.51509744
vt 0.6269599 0.51509744
vt 0.62695986 0.5475918
vt 0.53315467 0.59199345
vt 0.5868931 0.59199345
vt 0.6269599 0.59199345
vn -0.4075927 0.71820086 0.5639643
vn -0.60031825 0.72751355 0.33217764
vn -0.38792977 0.82718796 0.40653497
vn -0.57887536 0.81289554 0.064062506
vn -0.29852808 0.9528964 0.053567037
vn 0.011575439 0.9937975 0.110600315
vn -0.06053481 0.8905531 0.45083326
vn 0.25311586 0.8061643 0.5348192
vn 0.31531063 0.9324123 0.17659687
vn -0.69245917 0.72013646 0.04363347
vn -0.50602424 0.8284475 -0.24002957
vn -0.627699 0.737752 -0.24842693
vn -0.58173317 0.6239401 -0.5218095
vn -0.46302572 0.712246 -0.5275537
vn -0.3898741 0.5446796 -0.7425108
vn -0.15978678 0.6284111 -0.7612935
vn -0.19841601 0.86463344 -0.46156278
vn -0.12685452 0.47346234 -0.8716313
vn 0.16483508 0.6947872 -0.7000715
vn 0.18547693 0.5238931 -0.83134484
vn 0.20340727 0.6981871 0.68641114
vn 0.4702374 0.6930101 0.5464556
vn -0.10000657 0.772812 0.6267058
vn 0.4846162 0.4536279 -0.74790967
vn 0.4819853 0.60762036 -0.6312589
vn 0.114212535 0.9031321 -0.4138935
vn 0.41671097 0.84418595 -0.33719727
vn 0.68023074 0.5105748 -0.52592736
vn 0.6744644 0.67573196 -0.297463
vn 0.77611125 0.579945 -0.24761888
vn 0.6100557 0.7922107 -0.0153115345
vn 0.7198931 0.6937054 0.022955503
vn 0.6656829 0.67588055 0.31630963
vn 0.55903035 0.776017 0.29203215
vn 0.39102355 0.91699845 -0.07883128
vn 0.09289989 0.9496083 -0.29935557
vn 0.2911745 0.9510461 -0.10357964
vn 0.03650833 0.9992632 -0.011840852
vn -0.2705754 0.93902045 -0.2122012
vn -0.1649551 0.96669155 -0.19569722
vn -0.29891437 -0.83110684 0.46894732
vn -0.31645826 -0.850774 0.41956845
vn -0.39264446 -0.8465743 0.35936382
vn -0.12814634 -0.86223805 0.49002448
vn -0.12814634 -0.86223805 0.49002448
vn 0.039109506 -0.842614 0.537096
vn 0.07307195 -0.8640344 0.49810132
vn 0.16671996 -0.8656158 0.47213736
vn 0.20398593 -0.9069143 0.368641
vn 0.23560145 -0.9088935 0.3440998
vn 0.23278716 -0.94458425 0.23145366
vn 0.23733328 -0.94891864 0.20790906
vn -0.38956055 -0.8867097 0.24897487
vn -0.40926936 -0.886942 0.21408534
vn -0.36541283 -0.92422193 0.11084773
vn -0.3607647 -0.9285598 0.08732495
vn -0.35617718 -0.932246 0.06367991
vn -0.35667232 -0.9326373 -0.054519806
vn -0.32556212 -0.94231015 -0.07785164
vn -0.2854114 -0.9397355 -0.18824837
vn -0.1928692 -0.9581447 -0.21156581
vn -0.15723863 -0.9541907 -0.25455076
vn 0.007049556 -0.9796927 -0.20038098
vn 0.007049556 -0.9796927 -0.20038098
vn 0.19666113 -0.9714049 -0.13302964
vn 0.18078512 -0.9656979 -0.18639828
vn 0.2739541 -0.95877695 -0.07547136
vn 0.26798669 -0.96251476 0.041815188
vn 0.2882016 -0.9545892 0.07549439
vn 0.24202517 -0.9526085 0.18428423
vn -0.22144943 -0.97276264 -0.06850441
vn 0.20881203 -0.97789246 -0.011127313
vn 0.002848954 -0.9877071 -0.15629056
vn -0.2475631 -0.9252586 -0.28741798
vn 0.03716424 -0.95045334 -0.30863783
vn 0.3265762 -0.91833466 -0.22362782
vn 0.45621222 -0.8890057 -0.03923486
vn 0.27262866 -0.9382445 0.21300411
vn 0.5081775 -0.84583914 0.16220921
vn 0.47838145 -0.8199529 0.31436983
vn 0.12867723 -0.9082735 0.39809737
vn 0.35353553 -0.7998021 0.48510748
vn 0.16371992 -0.7768495 0.6080301
vn -0.116366796 -0.8841356 0.4525073
vn -0.13809565 -0.7981925 0.5863602
vn -0.29140145 -0.91199017 0.28871956
vn -0.39300364 -0.7989036 0.45530337
vn -0.48541623 -0.82752305 0.28209305
vn -0.3306215 -0.93897 0.09499825
vn -0.5147656 -0.85015905 0.11066098
vn -0.49024174 -0.87146467 -0.014575195
vn -0.3986814 -0.9028761 -0.16083513
vn 0.52737355 0.52980834 0.6642141
vn 0.52737355 0.52980834 0.6642141
vn 0.52737355 0.52980834 0.6642141
vn 0.7699585 0.32687965 -0.54800874
vn 0.7699585 0.32687965 -0.54800874
vn 0.7699585 0.32687965 -0.54800874
vn -0.4655355 0.38963354 -0.79464614
vn -0.4655355 0.38963354 -0.79464614
vn -0.4655355 0.38963354 -0.79464614
vn -0.69710827 0.5909026 0.4060469
vn -0.69710827 0.5909026 0.4060469
vn -0.69710827 0.5909026 0.4060469
vn -0.59003705 0.7243348 -0.3566445
vn 0.7960751 0.59881943 -0.087634355
vn 0.8059673 0.5709266 -0.15639597
vn -0.57823855 0.7027621 -0.41444618
vn 0.59023154 -0.72474706 0.35548332
vn 0.5784347 -0.7033316 0.41320443
vn -0.7958757 -0.59925216 0.086480245
vn -0.80577916 -0.5715268 0.15516788
vn -0.59003705 0.7243348 -0.3566445
vn -0.57823855 0.7027621 -0.41444618
vn 0.60787624 -0.7512189 0.25720924
vn -0.77277356 -0.63381684 -0.033124287
vn 0.6409189 -0.7588189 0.11583143
vn -0.7416395 -0.6404008 -0.19964358
vn -0.7111053 -0.629645 -0.31285226
vn 0.6597615 -0.7513697 0.012583033
vn 0.7412647 0.6402129 0.20162845
vn 0.71041626 0.6290089 0.31568423
vn -0.6604498 0.75080717 -0.009724443
vn -0.64143604 0.7586777 -0.11387701
vn -0.60791004 0.75118524 -0.2572277
vn 0.7728063 0.63377726 0.03311989
vn -0.6604498 0.75080717 -0.009724443
vn -0.64143604 0.7586777 -0.11387701
vn -0.60791004 0.75118524 -0.2572277
g shield_0
f 3/3/3 2/2/2 1/1/1
f 2/2/2 3/3/3 4/4/4
f 3/3/3 5/5/5 4/4/4
f 6/6/6 5/5/5 3/3/3
f 7/7/7 6/6/6 3/3/3
f 3/3/3 1/1/1 7/7/7
f 7/7/7 8/8/8 6/6/6
f 8/8/8 9/9/9 6/6/6
f 4/4/4 10/10/10 2/2/2
f 4/4/4 11/11/11 10/10/10
f 11/11/11 12/12/12 10/10/10
f 12/12/12 11/11/11 13/13/13
f 11/11/11 14/14/14 13/13/13
f 14/14/14 15/15/15 13/13/13
f 15/15/15 14/14/14 16/16/16
f 14/14/14 17/17/17 16/16/16
f 16/16/16 18/18/18 15/15/15
f 18/18/18 16/16/16 19/19/19
f 20/20/20 18/18/18 19/19/19
f 8/8/8 7/7/7 21/21/21
f 21/21/21 22/22/22 8/8/8
f 7/7/7 23/23/23 21/21/21
f 1/1/1 23/23/23 7/7/7
f 20/20/20 19/19/19 24/24/24
f 19/19/19 25/25/25 24/24/24
f 25/25/25 19/19/19 26/26/26
f 26/26/26 19/19/19 16/16/16
f 17/17/17 26/26/26 16/16/16
f 27/27/27 25/25/25 26/26/26
f 28/28/28 24/24/24 25/25/25
f 29/29/29 28/28/28 25/25/25
f 27/27/27 29/29/29 25/25/25
f 30/30/30 28/28/28 29/29/29
f 29/29/29 31/31/31 30/30/30
f 31/31/31 32/32/32 30/30/30
f 33/33/33 32/32/32 31/31/31
f 34/34/34 33/33/33 31/31/31
f 22/22/22 33/33/33 34/34/34
f 34/34/34 31/31/31 35/35/35
f 29/29/29 27/27/27 35/35/35
f 31/31/31 29/29/29 35/35/35
f 9/9/9 34/34/34 35/35/35
f 9/9/9 8/8/8 34/34/34
f 8/8/8 22/22/22 34/34/34
f 27/27/27 36/36/36 35/35/35
f 27/27/27 26/26/26 36/36/36
f 36/36/36 37/37/37 35/35/35
f 9/9/9 35/35/35 37/37/37
f 38/38/38 9/9/9 37/37/37
f 38/38/38 6/6/6 9/9/9
f 5/5/5 6/6/6 38/38/38
f 5/5/5 38/38/38 39/39/39
f 5/5/5 39/39/39 4/4/4
f 39/39/39 11/11/11 4/4/4
f 11/11/11 39/39/39 14/14/14
f 39/39/39 17/17/17 14/14/14
f 38/38/38 40/40/40 39/39/39
f 17/17/17 39/39/39 40/40/40
f 36/36/36 17/17/17 40/40/40
f 36/36/36 26/26/26 17/17/17
f 43/43/43 42/42/42 41/41/41
f 41/41/41 42/42/42 44/44/44
f 42/42/42 45/45/45 44/44/44
f 44/44/44 45/45/45 46/46/46
f 45/45/45 47/47/47 46/46/46
f 46/46/46 47/47/47 48/48/48
f 48/48/48 47/47/47 49/49/49
f 48/48/48 49/49/49 50/50/50
f 50/50/50 49/49/49 51/51/51
f 52/52/52 50/50/50 51/51/51
f 53/53/53 42/42/42 43/43/43
f 54/54/54 53/53/53 43/43/43
f 55/55/55 53/53/53 54/54/54
f 56/56/56 55/55/55 54/54/54
f 57/57/57 55/55/55 56/56/56
f 56/56/56 58/58/58 57/57/57
f 58/58/58 59/59/59 57/57/57
f 60/60/60 59/59/59 58/58/58
f 60/60/60 61/61/61 59/59/59
f 62/62/62 61/61/61 60/60/60
f 63/63/63 61/61/61 62/62/62
f 64/64/64 63/63/63 62/62/62
f 65/65/65 63/63/63 64/64/64
f 66/66/66 65/65/65 64/64/64
f 67/67/67 65/65/65 66/66/66
f 68/68/68 65/65/65 67/67/67
f 69/69/69 68/68/68 67/67/67
f 70/70/70 68/68/68 69/69/69
f 52/52/52 70/70/70 69/69/69
f 51/51/51 70/70/70 52/52/52
f 73/73/73 72/72/72 71/71/71
f 73/73/73 71/71/71 74/74/74
f 75/75/75 73/73/73 74/74/74
f 72/72/72 73/73/73 75/75/75
f 76/76/76 72/72/72 75/75/75
f 77/77/77 72/72/72 76/76/76
f 78/78/78 72/72/72 77/77/77
f 72/72/72 78/78/78 71/71/71
f 79/79/79 78/78/78 77/77/77
f 80/80/80 78/78/78 79/79/79
f 81/81/81 78/78/78 80/80/80
f 82/82/82 81/81/81 80/80/80
f 83/83/83 81/81/81 82/82/82
f 84/84/84 81/81/81 83/83/83
f 85/85/85 84/84/84 83/83/83
f 86/86/86 84/84/84 85/85/85
f 81/81/81 84/84/84 86/86/86
f 87/87/87 86/86/86 85/85/85
f 88/88/88 86/86/86 87/87/87
f 89/89/89 86/86/86 88/88/88
f 81/81/81 86/86/86 89/89/89
f 78/78/78 81/81/81 89/89/89
f 90/90/90 89/89/89 88/88/88
f 91/91/91 89/89/89 90/90/90
f 71/71/71 89/89/89 91/91/91
f 78/78/78 89/89/89 71/71/71
f 92/92/92 71/71/71 91/91/91
f 74/74/74 71/71/71 92/92/92
f 95/95/95 94/94/94 93/93/93
f 98/98/98 97/97/97 96/96/96
f 101/101/101 100/100/100 99/99/99
f 104/104/104 103/103/103 102/102/102
f 107/107/107 106/106/106 105/105/105
f 108/108/108 107/107/107 105/105/105
f 106/106/106 107/107/107 109/109/109
f 107/107/107 110/110/110 109/109/109
f 109/109/109 110/110/110 111/111/111
f 110/110/110 112/112/112 111/111/111
f 113/113/113 111/111/111 112/112/112
f 114/114/114 113/113/113 112/112/112
f 115/115/115 109/109/109 111/111/111
f 106/106/106 109/109/109 115/115/115
f 116/116/116 115/115/115 111/111/111
f 117/117/117 115/115/115 116/116/116
f 118/118/118 117/117/117 116/116/116
f 117/117/117 118/118/118 119/119/119
f 120/120/120 117/117/117 119/119/119
f 121/121/121 117/117/117 120/120/120
f 122/122/122 121/121/121 120/120/120
f 121/121/121 122/122/122 123/123/123
f 124/124/124 121/121/121 123/123/123
f 121/121/121 124/124/124 125/125/125
f 126/126/126 121/121/121 125/125/125
f 126/126/126 115/115/115 117/117/117
f 121/121/121 126/126/126 117/117/117
f 127/127/127 119/119/119 118/118/118
f 128/128/128 127/127/127 118/118/118
f 128/128/128 118/118/118 116/116/116
f 129/129/129 128/128/128 116/116/116
f 129/129/129 116/116/116 111/111/111
f 113/113/113 129/129/129 111/111/111
f 126/126/126 125/125/125 105/105/105
f 106/106/106 126/126/126 105/105/105
f 126/126/126 106/106/106 115/115/115
