g StaffC
v -0.08527256 0 0.87924373
v -0.065794475 0 0.93763256
v -0.001823312 -0.080851555 0.879181
v -0.004662254 0.08085159 0.879181
v 0.021125065 0.08085159 0.9698468
v -0.065794475 0 0.93763256
v -0.065794475 0 0.93763256
v -0.08527256 0 0.87924373
v -0.004662254 0.08085159 0.879181
v -0.17049626 0.09423495 1.1381372
v -0.09479628 0 1.1867126
v -0.25016022 0.109778605 1.2430708
v -0.25016022 0.109778605 1.2430708
v -0.31446356 0 1.2071136
v -0.17049626 0.09423495 1.1381372
v -0.21824768 0 1.0807474
v -0.17049626 0.09423495 1.1381372
v -0.31446356 0 1.2071136
v -0.31446356 0 1.2071136
v -0.17049626 -0.09423495 1.1381372
v -0.21824768 0 1.0807474
v -0.039659742 -0.080851555 1.0515523
v -0.21824768 0 1.0807474
v -0.17049626 -0.09423495 1.1381372
v -0.17049626 -0.09423495 1.1381372
v 0.0038115 0 1.1092905
v -0.039659742 -0.080851555 1.0515523
v 0.071635984 0 1.0533366
v -0.09479628 0 1.1867126
v 0.0038115 0 1.1092905
v -0.039659742 0.08085159 1.0515523
v 0.071635984 0 1.0533366
v -0.17049626 0.09423495 1.1381372
v -0.09479628 0 1.1867126
v 0.021125065 0.08085159 0.9698468
v 0.071635984 0 1.0533366
v -0.039659742 0.08085159 1.0515523
v -0.039659742 0.08085159 1.0515523
v -0.09714969 0 0.9975578
v 0.021125065 0.08085159 0.9698468
v -0.065794475 0 0.93763256
v 0.021125065 0.08085159 0.9698468
v -0.09714969 0 0.9975578
v -0.09714969 0 0.9975578
v 0.021125065 -0.080851555 0.9698468
v -0.065794475 0 0.93763256
v -0.001823312 -0.080851555 0.879181
v -0.065794475 0 0.93763256
v 0.021125065 -0.080851555 0.9698468
v 0.021125065 -0.080851555 0.9698468
v 0.08379786 0 0.8791183
v -0.001823312 -0.080851555 0.879181
v 0.021125065 0.08085159 0.9698468
v -0.004662254 0.08085159 0.879181
v 0.08379786 0 0.8791183
v 0.08379786 0 0.8791183
v 0.10415541 0 0.97691524
v 0.021125065 0.08085159 0.9698468
v 0.071635984 0 1.0533366
v 0.021125065 0.08085159 0.9698468
v 0.10415541 0 0.97691524
v 0.10415541 0 0.97691524
v 0.021125065 -0.080851555 0.9698468
v 0.071635984 0 1.0533366
v -0.039659742 -0.080851555 1.0515523
v 0.071635984 0 1.0533366
v 0.021125065 -0.080851555 0.9698468
v 0.021125065 -0.080851555 0.9698468
v -0.09714969 0 0.9975578
v -0.039659742 -0.080851555 1.0515523
v -0.21824768 0 1.0807474
v -0.039659742 -0.080851555 1.0515523
v -0.09714969 0 0.9975578
v -0.09714969 0 0.9975578
v -0.039659742 0.08085159 1.0515523
v -0.21824768 0 1.0807474
v -0.17049626 0.09423495 1.1381372
v -0.21824768 0 1.0807474
v -0.039659742 0.08085159 1.0515523
v -0.25016022 -0.10977855 1.2430708
v -0.09479628 0 1.1867126
v -0.17049626 -0.09423495 1.1381372
v -0.17049626 -0.09423495 1.1381372
v -0.31446356 0 1.2071136
v -0.25016022 -0.10977855 1.2430708
v -0.34255698 0 1.3868024
v -0.25016022 -0.10977855 1.2430708
v -0.31446356 0 1.2071136
v -0.31446356 0 1.2071136
v -0.25016022 0.109778605 1.2430708
v -0.34255698 0 1.3868024
v -0.16343658 0 1.2769995
v -0.25016022 0.109778605 1.2430708
v -0.09479628 0 1.1867126
v -0.09479628 0 1.1867126
v -0.25016022 -0.10977855 1.2430708
v -0.16343658 0 1.2769995
v -0.25103295 -0.10977855 1.3723363
v -0.16343658 0 1.2769995
v -0.25016022 -0.10977855 1.2430708
v -0.16715044 0 1.3558575
v -0.25016022 -0.10977855 1.2430708
v -0.34255698 0 1.3868024
v -0.25103295 -0.10977855 1.3723363
v -0.2849378 0 1.5526206
v -0.25103295 -0.10977855 1.3723363
v -0.34255698 0 1.3868024
v -0.2030733 -0.109778605 1.493109
v -0.34255698 0 1.3868024
v -0.25103295 0.109778605 1.3723363
v -0.2849378 0 1.5526206
v -0.2030733 0.109778605 1.493109
v -0.25103295 0.109778605 1.3723363
v -0.16715044 0 1.3558575
v -0.2030733 0.109778605 1.493109
v -0.1271969 0 1.4544063
v -0.16715044 0 1.3558575
v -0.2030733 -0.109778605 1.493109
v -0.1271969 0 1.4544063
v -0.25103295 -0.10977855 1.3723363
v -0.08112482 -0.09625411 1.5817827
v -0.1271969 0 1.4544063
v -0.2030733 -0.109778605 1.493109
v -0.2030733 -0.109778605 1.493109
v -0.13171683 0 1.671967
v -0.08112482 -0.09625411 1.5817827
v 0.06806658 0 1.6942451
v -0.08112482 -0.09625411 1.5817827
v -0.13171683 0 1.671967
v -0.13171683 0 1.671967
v -0.08112482 0.09625415 1.5817827
v 0.06806658 0 1.6942451
v 0.0660447 0.08085164 1.6007508
v 0.06806658 0 1.6942451
v -0.08112482 0.09625415 1.5817827
v -0.08112482 0.09625415 1.5817827
v -0.048842523 0 1.5137452
v 0.0660447 0.08085164 1.6007508
v -0.25103295 0.109778605 1.3723363
v -0.34255698 0 1.3868024
v -0.25016022 0.109778605 1.2430708
v -0.25016022 0.109778605 1.2430708
v -0.16343658 0 1.2769995
v -0.25103295 0.109778605 1.3723363
v -0.16715044 0 1.3558575
v -0.13171683 0 1.671967
v -0.2030733 -0.109778605 1.493109
v -0.2849378 0 1.5526206
v -0.2849378 0 1.5526206
v -0.2030733 0.109778605 1.493109
v -0.13171683 0 1.671967
v -0.08112482 0.09625415 1.5817827
v -0.13171683 0 1.671967
v -0.2030733 0.109778605 1.493109
v -0.2030733 0.109778605 1.493109
v -0.1271969 0 1.4544063
v -0.08112482 0.09625415 1.5817827
v -0.048842523 0 1.5137452
v -0.08112482 0.09625415 1.5817827
v -0.1271969 0 1.4544063
v -0.1271969 0 1.4544063
v -0.08112482 -0.09625411 1.5817827
v -0.048842523 0 1.5137452
v 0.0660447 -0.08085159 1.6007508
v -0.048842523 0 1.5137452
v -0.08112482 -0.09625411 1.5817827
v -0.08112482 -0.09625411 1.5817827
v 0.06806658 0 1.6942451
v 0.0660447 -0.08085159 1.6007508
v 0.18859588 0 1.5427684
v 0.0660447 -0.08085159 1.6007508
v 0.06806658 0 1.6942451
v 0.06806658 0 1.6942451
v 0.0660447 0.08085164 1.6007508
v 0.18859588 0 1.5427684
v 0.07161886 0 1.5251219
v 0.0660447 0.08085164 1.6007508
v -0.048842523 0 1.5137452
v -0.048842523 0 1.5137452
v 0.0660447 -0.08085159 1.6007508
v 0.07161886 0 1.5251219
v 0.18606968 -0.00042847393 1.5433159
v 0.07161886 0 1.5251219
v 0.0660447 -0.08085159 1.6007508
v 0.0660447 -0.08085159 1.6007508
v 0.18859588 0 1.5427684
v 0.18606968 -0.00042847393 1.5433159
v 0.19027294 0.00036895752 1.5443368
v 0.18859588 0 1.5427684
v 0.0660447 0.08085164 1.6007508
v 0.0660447 0.08085164 1.6007508
v 0.07161886 0 1.5251219
v 0.19027294 0.00036895752 1.5443368
v 0.18859148 0 1.5430567
v 0.19027294 0.00036895752 1.5443368
v 0.07161886 0 1.5251219
v 0.07161886 0 1.5251219
v 0.18606968 -0.00042847393 1.5433159
v 0.18859148 0 1.5430567
v -0.07330347 0 0.33814982
v -0.004662254 0.08085159 0.879181
v -0.08527256 0 0.87924373
v -0.08527256 0 0.87924373
v -0.001823312 -0.080851555 0.879181
v -0.07330347 0 0.33814982
v -0.0006850004 -0.08194281 0.3380051
v -0.07330347 0 0.33814982
v -0.001823312 -0.080851555 0.879181
v -0.0006850004 -0.053457815 -0.61077905
v -0.001823312 -0.080851555 0.879181
v 0.08379786 0 0.8791183
v -0.0006850004 -0.08194281 0.3380051
v 0.07193348 0 0.33786044
v -0.0006850004 -0.08194281 0.3380051
v 0.08379786 0 0.8791183
v -0.0006850004 -0.053457815 -0.61077905
v 0.08379786 0 0.8791183
v -0.0006850004 0.08194287 0.3380051
v 0.07193348 0 0.33786044
v -0.0006850004 0.05345786 -0.61077905
v -0.0006850004 0.08194287 0.3380051
v -0.07330347 0 0.33814982
v -0.0006850004 0.05345786 -0.61077905
v -0.004662254 0.08085159 0.879181
v -0.03325015 0 -0.61065775
v -0.0006850004 0.05345786 -0.61077905
v -0.07330347 0 0.33814982
v -0.07330347 0 0.33814982
v -0.0006850004 -0.053457815 -0.61077905
v -0.03325015 0 -0.61065775
v 0.031880148 0 -0.6109002
v 0.07193348 0 0.33786044
v -0.0006850004 0.05345786 -0.61077905
v 0.031880148 0 -0.6109002
v -0.0006850004 -0.053457815 -0.61077905
v 0.07193348 0 0.33786044
v -0.0006850004 0.08194287 0.3380051
v 0.08379786 0 0.8791183
v -0.004662254 0.08085159 0.879181
v 0.10415541 0 0.97691524
v 0.08379786 0 0.8791183
v 0.021125065 -0.080851555 0.9698468
vt 0.673853 0.221852
vt 0.683785 0.269311
vt 0.597742 0.225635
vt 0.597742 0.225635
vt 0.608111 0.308637
vt 0.683785 0.269311
vt 0.683785 0.269311
vt 0.673853 0.221852
vt 0.597742 0.225635
vt 0.796406 0.446182
vt 0.727826 0.49209
vt 0.877118 0.534948
vt 0.877118 0.534948
vt 0.931689 0.493947
vt 0.796406 0.446182
vt 0.834233 0.387071
vt 0.796406 0.446182
vt 0.931689 0.493947
vt 0.931689 0.493947
vt 0.796406 0.446182
vt 0.834233 0.387071
vt 0.669809 0.377848
vt 0.834233 0.387071
vt 0.796406 0.446182
vt 0.796406 0.446182
vt 0.631567 0.429601
vt 0.669809 0.377848
vt 0.565171 0.38418
vt 0.727826 0.49209
vt 0.631567 0.429601
vt 0.669809 0.377848
vt 0.565171 0.38418
vt 0.796406 0.446182
vt 0.727826 0.49209
vt 0.608111 0.308637
vt 0.565171 0.38418
vt 0.669809 0.377848
vt 0.669809 0.377848
vt 0.716847 0.32107
vt 0.608111 0.308637
vt 0.683785 0.269311
vt 0.608111 0.308637
vt 0.716847 0.32107
vt 0.716847 0.32107
vt 0.608111 0.308637
vt 0.683785 0.269311
vt 0.597742 0.225635
vt 0.683785 0.269311
vt 0.608111 0.308637
vt 0.608111 0.308637
vt 0.51521 0.222072
vt 0.597742 0.225635
vt 0.608111 0.308637
vt 0.597742 0.225635
vt 0.51521 0.222072
vt 0.51521 0.222072
vt 0.52989 0.31761
vt 0.608111 0.308637
vt 0.565171 0.38418
vt 0.608111 0.308637
vt 0.52989 0.31761
vt 0.52989 0.31761
vt 0.608111 0.308637
vt 0.565171 0.38418
vt 0.669809 0.377848
vt 0.565171 0.38418
vt 0.608111 0.308637
vt 0.608111 0.308637
vt 0.716847 0.32107
vt 0.669809 0.377848
vt 0.834233 0.387071
vt 0.669809 0.377848
vt 0.716847 0.32107
vt 0.716847 0.32107
vt 0.669809 0.377848
vt 0.834233 0.387071
vt 0.796406 0.446182
vt 0.834233 0.387071
vt 0.669809 0.377848
vt 0.877118 0.534948
vt 0.727826 0.49209
vt 0.796406 0.446182
vt 0.796406 0.446182
vt 0.931689 0.493947
vt 0.877118 0.534948
vt 0.970069 0.654122
vt 0.877118 0.534948
vt 0.931689 0.493947
vt 0.931689 0.493947
vt 0.877118 0.534948
vt 0.970069 0.654122
vt 0.79736 0.568459
vt 0.877118 0.534948
vt 0.727826 0.49209
vt 0.727826 0.49209
vt 0.877118 0.534948
vt 0.79736 0.568459
vt 0.886907 0.651634
vt 0.79736 0.568459
vt 0.877118 0.534948
vt 0.806264 0.639403
vt 0.877118 0.534948
vt 0.970069 0.654122
vt 0.886907 0.651634
vt 0.928492 0.808233
vt 0.886907 0.651634
vt 0.970069 0.654122
vt 0.851101 0.764332
vt 0.970069 0.654122
vt 0.886907 0.651634
vt 0.928492 0.808233
vt 0.851101 0.764332
vt 0.886907 0.651634
vt 0.806264 0.639403
vt 0.851101 0.764332
vt 0.776292 0.731425
vt 0.806264 0.639403
vt 0.851101 0.764332
vt 0.776292 0.731425
vt 0.886907 0.651634
vt 0.744877 0.85362
vt 0.776292 0.731425
vt 0.851101 0.764332
vt 0.851101 0.764332
vt 0.79558 0.927583
vt 0.744877 0.85362
vt 0.613008 0.962774
vt 0.744877 0.85362
vt 0.79558 0.927583
vt 0.79558 0.927583
vt 0.744877 0.85362
vt 0.613008 0.962774
vt 0.610564 0.881853
vt 0.613008 0.962774
vt 0.744877 0.85362
vt 0.744877 0.85362
vt 0.708205 0.79093
vt 0.610564 0.881853
vt 0.886907 0.651634
vt 0.970069 0.654122
vt 0.877118 0.534948
vt 0.877118 0.534948
vt 0.79736 0.568459
vt 0.886907 0.651634
vt 0.806264 0.639403
vt 0.79558 0.927583
vt 0.851101 0.764332
vt 0.928492 0.808233
vt 0.928492 0.808233
vt 0.851101 0.764332
vt 0.79558 0.927583
vt 0.744877 0.85362
vt 0.79558 0.927583
vt 0.851101 0.764332
vt 0.851101 0.764332
vt 0.776292 0.731425
vt 0.744877 0.85362
vt 0.708205 0.79093
vt 0.744877 0.85362
vt 0.776292 0.731425
vt 0.776292 0.731425
vt 0.744877 0.85362
vt 0.708205 0.79093
vt 0.610564 0.881853
vt 0.708205 0.79093
vt 0.744877 0.85362
vt 0.744877 0.85362
vt 0.613008 0.962774
vt 0.610564 0.881853
vt 0.453675 0.917153
vt 0.610564 0.881853
vt 0.613008 0.962774
vt 0.613008 0.962774
vt 0.610564 0.881853
vt 0.453675 0.917153
vt 0.597979 0.810292
vt 0.610564 0.881853
vt 0.708205 0.79093
vt 0.708205 0.79093
vt 0.610564 0.881853
vt 0.597979 0.810292
vt 0.493203 0.85389
vt 0.597979 0.810292
vt 0.610564 0.881853
vt 0.610564 0.881853
vt 0.453675 0.917153
vt 0.493203 0.85389
vt 0.493203 0.85389
vt 0.453675 0.917153
vt 0.610564 0.881853
vt 0.610564 0.881853
vt 0.597979 0.810292
vt 0.493203 0.85389
vt 0.532101 0.783234
vt 0.493203 0.85389
vt 0.597979 0.810292
vt 0.597979 0.810292
vt 0.493203 0.85389
vt 0.532101 0.783234
vt 0.206934 0.715807
vt 0.126436 0.985871
vt 0.223975 0.981005
vt 0.223975 0.981005
vt 0.126436 0.985871
vt 0.206934 0.715807
vt 0.125167 0.720693
vt 0.206934 0.715807
vt 0.126436 0.985871
vt 0.125236 0.104331
vt 0.126436 0.985871
vt 0.026756 0.980899
vt 0.125167 0.720693
vt 0.043796 0.715609
vt 0.125167 0.720693
vt 0.026756 0.980899
vt 0.125236 0.104331
vt 0.026756 0.980899
vt 0.125167 0.720693
vt 0.043796 0.715609
vt 0.125236 0.104331
vt 0.125167 0.720693
vt 0.206934 0.715807
vt 0.125236 0.104331
vt 0.126436 0.985871
vt 0.160011 0.101156
vt 0.125236 0.104331
vt 0.206934 0.715807
vt 0.206934 0.715807
vt 0.125236 0.104331
vt 0.160011 0.101156
vt 0.09072 0.101001
vt 0.043796 0.715609
vt 0.125236 0.104331
vt 0.09072 0.101001
vt 0.125236 0.104331
vt 0.043796 0.715609
vt 0.125167 0.720693
vt 0.026756 0.980899
vt 0.126436 0.985871
vt 0.52989 0.31761
vt 0.51521 0.222072
vt 0.608111 0.308637
vn -0.6372958 -0.73535794 -0.23044074
vn -0.6372958 -0.73535794 -0.23044074
vn -0.6372958 -0.7353579 -0.23044074
vn -0.59908754 0.79702103 -0.07649549
vn -0.5990876 0.79702103 -0.07649549
vn -0.5990875 0.79702103 -0.07649548
vn -0.63729596 0.73535764 -0.2304407
vn -0.63729596 0.73535764 -0.23044072
vn -0.63729596 0.73535764 -0.2304407
vn 0.5320846 0.75193787 0.38919842
vn 0.5320846 0.7519379 0.38919845
vn 0.5320846 0.75193787 0.38919848
vn -0.53620464 0.6141847 -0.579018
vn -0.53620464 0.6141847 -0.579018
vn -0.53620464 0.6141847 -0.579018
vn -0.5399801 0.6768454 -0.50030166
vn -0.5399801 0.6768454 -0.5003016
vn -0.5399801 0.6768454 -0.5003016
vn -0.5399801 -0.6768454 -0.5003016
vn -0.5399801 -0.6768454 -0.5003016
vn -0.5399801 -0.6768454 -0.50030166
vn -0.30327028 -0.67522806 -0.6723795
vn -0.30327025 -0.67522806 -0.6723795
vn -0.30327025 -0.67522806 -0.6723795
vn 0.36819944 -0.7254847 0.5814646
vn 0.36819944 -0.7254847 0.5814646
vn 0.36819944 -0.7254848 0.5814646
vn 0.38463792 -0.72555035 0.5706402
vn 0.36918133 -0.72849363 0.5770634
vn 0.384638 0.72555023 0.5706404
vn 0.38463804 0.7255503 0.5706404
vn 0.38463804 0.72555023 0.5706404
vn 0.36819935 0.72548467 0.5814648
vn 0.36918133 0.72849363 0.5770634
vn 0.4450836 0.7995985 0.403166
vn 0.4450836 0.7995985 0.403166
vn 0.4450836 0.7995985 0.40316603
vn -0.48522604 0.75589085 -0.43952787
vn -0.48522604 0.75589085 -0.4395279
vn -0.48522604 0.75589085 -0.4395279
vn -0.4962808 0.8061233 -0.32228965
vn -0.49628082 0.8061233 -0.32228965
vn -0.4962808 0.80612326 -0.32228965
vn -0.4962806 -0.8061235 -0.3222895
vn -0.4962806 -0.8061235 -0.32228947
vn -0.4962806 -0.8061235 -0.3222895
vn -0.5990873 -0.79702115 -0.07649551
vn -0.5990873 -0.79702115 -0.07649551
vn -0.5990873 -0.79702115 -0.07649551
vn 0.64303005 -0.76142687 0.082106434
vn 0.64303005 -0.76142687 0.082106434
vn 0.64303005 -0.76142687 0.082106434
vn 0.6430303 0.76142675 0.0821064
vn 0.6430303 0.76142675 0.08210641
vn 0.6430303 0.76142675 0.0821064
vn 0.6254229 0.7786163 0.0510183
vn 0.62542295 0.7786163 0.0510183
vn 0.6254229 0.7786163 0.051018298
vn 0.5703289 0.7617389 0.30737385
vn 0.57032895 0.7617389 0.30737385
vn 0.57032895 0.7617389 0.30737385
vn 0.57032883 -0.7617391 0.30737373
vn 0.5703289 -0.7617391 0.3073738
vn 0.57032883 -0.7617391 0.30737373
vn 0.44508344 -0.7995987 0.4031659
vn 0.4450835 -0.7995987 0.40316594
vn 0.4450835 -0.7995987 0.40316594
vn -0.48522586 -0.755891 -0.43952775
vn -0.48522586 -0.755891 -0.4395277
vn -0.48522586 -0.755891 -0.43952775
vn -0.32265314 -0.7464296 -0.5820119
vn -0.32265314 -0.7464296 -0.5820119
vn -0.32265314 -0.7464296 -0.5820119
vn -0.3226533 0.7464294 -0.58201206
vn -0.32265323 0.7464294 -0.582012
vn -0.32265323 0.7464294 -0.58201206
vn -0.30327037 0.6752281 -0.67237943
vn -0.30327037 0.6752281 -0.6723794
vn -0.30327037 0.6752281 -0.67237943
vn 0.5320844 -0.7519379 0.3891986
vn 0.53208447 -0.7519379 0.3891987
vn 0.53208447 -0.7519379 0.38919863
vn -0.5362046 -0.6141848 -0.57901776
vn -0.53620464 -0.6141848 -0.57901776
vn -0.5362046 -0.61418486 -0.57901776
vn -0.7737 -0.60481757 -0.18863712
vn -0.7737 -0.6048176 -0.1886371
vn -0.7737 -0.60481757 -0.18863714
vn -0.7737002 0.60481733 -0.18863714
vn -0.7737002 0.6048174 -0.18863714
vn -0.7737002 0.6048174 -0.18863714
vn 0.52644557 0.69688576 0.48703718
vn 0.5264457 0.69688576 0.48703718
vn 0.5264456 0.69688576 0.48703718
vn 0.5264455 -0.6968859 0.48703703
vn 0.5264455 -0.69688594 0.4870371
vn 0.5264455 -0.6968859 0.4870371
vn 0.7199355 -0.69131315 0.061474476
vn 0.7199355 -0.69131315 0.06147448
vn 0.7199355 -0.69131315 0.061474472
vn 0.73241454 -0.674401 0.09355356
vn -0.7024369 -0.70921415 -0.059980296
vn -0.7024369 -0.70921415 -0.0599803
vn -0.7024369 -0.70921415 -0.0599803
vn -0.682066 -0.7068632 0.1874311
vn -0.682066 -0.7068632 0.1874311
vn -0.68206596 -0.7068632 0.1874311
vn -0.6486091 -0.73160034 0.20992161
vn -0.6820662 0.70686305 0.18743113
vn -0.6820662 0.70686305 0.18743113
vn -0.6820662 0.70686305 0.18743113
vn -0.64860904 0.73160034 0.20992179
vn 0.7002276 0.6769941 -0.22662808
vn 0.7002276 0.6769941 -0.22662812
vn 0.7002276 0.6769941 -0.22662811
vn 0.6955003 0.6804614 -0.23076336
vn 0.6955003 -0.68046135 -0.23076333
vn 0.6955003 -0.68046135 -0.23076333
vn 0.6955004 -0.6804613 -0.23076332
vn 0.7002275 -0.67699414 -0.22662826
vn 0.522837 -0.6438684 -0.5586367
vn 0.52283704 -0.6438684 -0.5586368
vn 0.522837 -0.6438684 -0.5586368
vn -0.34773627 -0.78355163 0.5149043
vn -0.34773627 -0.78355163 0.51490426
vn -0.34773624 -0.78355163 0.51490426
vn -0.12070898 -0.7549617 0.64456344
vn -0.12070898 -0.7549617 0.64456344
vn -0.12070898 -0.7549617 0.64456344
vn -0.12070903 0.7549616 0.6445637
vn -0.12070902 0.7549616 0.6445636
vn -0.12070903 0.7549616 0.6445637
vn -0.051115118 0.80242485 0.59455997
vn -0.051115118 0.80242485 0.5945599
vn -0.051115114 0.80242485 0.5945599
vn 0.20532243 0.6632148 -0.7197144
vn 0.20532243 0.6632148 -0.7197144
vn 0.20532244 0.66321486 -0.71971434
vn -0.70243704 0.709214 -0.059980307
vn -0.7024371 0.709214 -0.059980307
vn -0.70243704 0.709214 -0.059980307
vn 0.71993566 0.69131297 0.0614745
vn 0.71993566 0.6913129 0.061474487
vn 0.71993566 0.69131297 0.0614745
vn 0.7324147 0.67440075 0.09355358
vn -0.4567722 -0.7224488 0.5190636
vn -0.45677212 -0.7224487 0.5190636
vn -0.45677212 -0.7224487 0.5190636
vn -0.45677212 0.7224487 0.5190636
vn -0.45677212 0.7224487 0.5190636
vn -0.4567722 0.7224488 0.5190636
vn -0.34773657 0.78355145 0.51490426
vn -0.34773654 0.78355145 0.5149042
vn -0.34773654 0.78355145 0.5149043
vn 0.5228369 0.6438684 -0.5586369
vn 0.5228369 0.6438684 -0.5586369
vn 0.52283686 0.6438684 -0.55863684
vn 0.48278227 0.670177 -0.56372344
vn 0.4827822 0.670177 -0.56372344
vn 0.4827822 0.67017704 -0.5637235
vn 0.48278216 -0.6701771 -0.5637234
vn 0.48278216 -0.6701771 -0.5637234
vn 0.48278219 -0.67017716 -0.5637234
vn 0.20532249 -0.66321504 -0.7197143
vn 0.2053225 -0.66321504 -0.7197143
vn 0.2053225 -0.66321504 -0.7197143
vn -0.051115055 -0.8024251 0.5945597
vn -0.05111505 -0.802425 0.5945598
vn -0.05111506 -0.802425 0.5945597
vn 0.1684839 -0.78611934 0.5946675
vn 0.16848391 -0.7861194 0.5946675
vn 0.16848388 -0.7861194 0.5946675
vn 0.16848396 0.7861193 0.5946677
vn 0.16848396 0.7861193 0.5946677
vn 0.16848396 0.7861193 0.5946677
vn 0.113552615 0.73718023 -0.6660864
vn 0.113552615 0.7371803 -0.6660864
vn 0.113552615 0.7371803 -0.6660864
vn 0.113552585 -0.7371804 -0.6660862
vn 0.113552585 -0.7371805 -0.6660862
vn 0.11355259 -0.7371805 -0.6660862
vn -0.16162585 -0.71084046 -0.68453103
vn -0.16162585 -0.71084046 -0.6845311
vn -0.16162585 -0.71084046 -0.68453103
vn 0.14917693 -0.7606359 0.6318064
vn 0.14917693 -0.7606359 0.6318064
vn 0.14917691 -0.7606359 0.6318064
vn 0.14917697 0.76063573 0.63180655
vn 0.14917699 0.76063573 0.63180655
vn 0.14917697 0.7606358 0.6318065
vn -0.16162592 0.71084034 -0.6845313
vn -0.16162592 0.71084034 -0.6845313
vn -0.16162592 0.71084034 -0.6845313
vn -0.23663299 0.776854 -0.58352625
vn -0.23663299 0.776854 -0.58352625
vn -0.23663299 0.776854 -0.58352625
vn -0.23663288 -0.77685416 -0.58352596
vn -0.2366329 -0.77685416 -0.5835259
vn -0.23663288 -0.77685416 -0.58352584
vn -0.6547593 0.7557091 -0.013925679
vn -0.6547592 0.75570923 -0.01392568
vn -0.6547592 0.75570923 -0.01392568
vn -0.654759 -0.75570935 -0.013925675
vn -0.65475905 -0.7557094 -0.013925676
vn -0.65475905 -0.7557094 -0.013925678
vn -0.71028876 -0.7039104 -0.00021607343
vn -0.71028876 -0.7039104 -0.00021607343
vn -0.71028876 -0.7039104 -0.00021607344
vn -0.7102292 -0.70382214 -0.014457317
vn 0.6451708 -0.7640338 0.0026294626
vn 0.6451708 -0.76403385 0.0026294624
vn 0.64517075 -0.76403385 0.0026294626
vn 0.71019363 -0.7038473 -0.014968003
vn 0.71019363 -0.7038473 -0.014968005
vn 0.71019363 -0.70384735 -0.014968003
vn 0.7101994 -0.703852 -0.014457929
vn 0.7101939 0.7038471 -0.014968009
vn 0.7101939 0.7038471 -0.014968009
vn 0.7101939 0.70384705 -0.014968007
vn 0.7101997 0.7038518 -0.01445793
vn -0.7102294 0.7038219 -0.014457315
vn -0.7102294 0.7038219 -0.014457315
vn -0.7102294 0.70382184 -0.014457312
vn -0.710289 0.7039102 -0.00021606803
vn -0.8261955 0.56275123 -0.026685039
vn -0.8261955 0.5627513 -0.026685042
vn -0.8261955 0.5627512 -0.026685042
vn -0.8261953 -0.56275153 -0.026685037
vn -0.8261953 -0.56275153 -0.026685037
vn -0.82619524 -0.5627516 -0.026685037
vn 0.82613 0.5628474 -0.026683979
vn 0.82613 0.5628474 -0.026683979
vn 0.82613 0.5628474 -0.026683982
vn 0.82612973 -0.56284773 -0.026683968
vn 0.8261298 -0.5628477 -0.026683968
vn 0.82612973 -0.56284773 -0.026683971
vn 0.645171 0.76403373 0.0026294691
vn 0.645171 0.76403373 0.0026294696
vn 0.645171 0.76403373 0.0026294696
vn 0.62542266 -0.7786164 0.051018275
vn 0.62542266 -0.7786164 0.051018275
vn 0.6254227 -0.7786164 0.051018283
g StaffC_0
f 3/3/3 2/2/2 1/1/1
f 6/6/6 5/5/5 4/4/4
f 9/9/9 8/8/8 7/7/7
f 12/12/12 11/11/11 10/10/10
f 15/15/15 14/14/14 13/13/13
f 18/18/18 17/17/17 16/16/16
f 21/21/21 20/20/20 19/19/19
f 24/24/24 23/23/23 22/22/22
f 27/27/27 26/26/26 25/25/25
f 26/26/26 27/27/27 28/28/28
f 29/29/29 25/25/25 26/26/26
f 32/32/32 31/31/31 30/30/30
f 33/33/33 30/30/30 31/31/31
f 30/30/30 33/33/33 34/34/34
f 37/37/37 36/36/36 35/35/35
f 40/40/40 39/39/39 38/38/38
f 43/43/43 42/42/42 41/41/41
f 46/46/46 45/45/45 44/44/44
f 49/49/49 48/48/48 47/47/47
f 52/52/52 51/51/51 50/50/50
f 55/55/55 54/54/54 53/53/53
f 58/58/58 57/57/57 56/56/56
f 61/61/61 60/60/60 59/59/59
f 64/64/64 63/63/63 62/62/62
f 67/67/67 66/66/66 65/65/65
f 70/70/70 69/69/69 68/68/68
f 73/73/73 72/72/72 71/71/71
f 76/76/76 75/75/75 74/74/74
f 79/79/79 78/78/78 77/77/77
f 82/82/82 81/81/81 80/80/80
f 85/85/85 84/84/84 83/83/83
f 88/88/88 87/87/87 86/86/86
f 91/91/91 90/90/90 89/89/89
f 94/94/94 93/93/93 92/92/92
f 97/97/97 96/96/96 95/95/95
f 100/100/100 99/99/99 98/98/98
f 101/101/101 98/98/98 99/99/99
f 104/104/104 103/103/103 102/102/102
f 107/107/107 106/106/106 105/105/105
f 108/108/108 105/105/105 106/106/106
f 111/111/111 110/110/110 109/109/109
f 110/110/110 111/111/111 112/112/112
f 115/115/115 114/114/114 113/113/113
f 114/114/114 115/115/115 116/116/116
f 119/119/119 118/118/118 117/117/117
f 120/120/120 117/117/117 118/118/118
f 123/123/123 122/122/122 121/121/121
f 126/126/126 125/125/125 124/124/124
f 129/129/129 128/128/128 127/127/127
f 132/132/132 131/131/131 130/130/130
f 135/135/135 134/134/134 133/133/133
f 138/138/138 137/137/137 136/136/136
f 141/141/141 140/140/140 139/139/139
f 144/144/144 143/143/143 142/142/142
f 143/143/143 144/144/144 145/145/145
f 148/148/148 147/147/147 146/146/146
f 151/151/151 150/150/150 149/149/149
f 154/154/154 153/153/153 152/152/152
f 157/157/157 156/156/156 155/155/155
f 160/160/160 159/159/159 158/158/158
f 163/163/163 162/162/162 161/161/161
f 166/166/166 165/165/165 164/164/164
f 169/169/169 168/168/168 167/167/167
f 172/172/172 171/171/171 170/170/170
f 175/175/175 174/174/174 173/173/173
f 178/178/178 177/177/177 176/176/176
f 181/181/181 180/180/180 179/179/179
f 184/184/184 183/183/183 182/182/182
f 187/187/187 186/186/186 185/185/185
f 190/190/190 189/189/189 188/188/188
f 193/193/193 192/192/192 191/191/191
f 196/196/196 195/195/195 194/194/194
f 199/199/199 198/198/198 197/197/197
f 202/202/202 201/201/201 200/200/200
f 205/205/205 204/204/204 203/203/203
f 208/208/208 207/207/207 206/206/206
f 206/206/206 207/207/207 209/209/209
f 212/212/212 211/211/211 210/210/210
f 215/215/215 214/214/214 213/213/213
f 216/216/216 213/213/213 214/214/214
f 219/219/219 218/218/218 217/217/217
f 218/218/218 219/219/219 220/220/220
f 223/223/223 222/222/222 221/221/221
f 221/221/221 222/222/222 224/224/224
f 227/227/227 226/226/226 225/225/225
f 230/230/230 229/229/229 228/228/228
f 233/233/233 232/232/232 231/231/231
f 236/236/236 235/235/235 234/234/234
f 239/239/239 238/238/238 237/237/237
f 242/242/242 241/241/241 240/240/240
