g sword_adjusted
v -1.218898 1.3785207 -0.2743379
v -1.3205266 1.4375185 -0.30656242
v -1.2876234 1.4484569 -0.25689602
v -1.2193704 1.4066614 -0.23642965
v -1.246988 1.4891707 -0.039813288
v -1.2158649 1.4608246 -0.03428006
v -1.2492423 1.5092986 0.07630575
v -1.2110645 1.489603 0.1591042
v -1.2587337 1.5302105 0.19976243
v -1.2070384 1.4979124 0.29220703
v -1.2838708 1.5108242 0.39637968
v -1.1992054 1.4851104 0.49790823
v -1.3010304 1.5527917 0.34569293
v -1.4111148 1.5284942 0.4354334
v -1.419478 1.5542898 0.40090892
v -1.5213864 1.5237525 0.41029635
v -1.5092305 1.5414169 0.3625534
v -1.2971535 1.5315018 0.5199869
v -1.3995245 1.538763 0.48965812
v -1.3296897 1.5861048 0.54769295
v -1.3959537 1.5751327 0.5109712
v -1.5025135 1.5367804 0.4774499
v -1.4461808 1.5745317 0.52730733
v -1.4533234 1.5853617 0.5921215
v -1.5413284 1.5298245 0.30882648
v -1.2324731 1.5720594 0.681382
v -1.2559899 1.6164836 0.69258976
v -1.2552184 1.5951782 0.86801845
v -1.1974133 1.5425377 0.655918
v -1.1916044 1.5818282 0.89814246
v -1.1890614 1.6350923 1.0704746
v -1.2673626 1.6323683 0.7880066
v -1.3363905 1.6469723 0.8987947
v -1.4040719 1.6549078 0.9708755
v -1.3418819 1.691317 1.1548271
v -1.1847099 1.6682975 1.2588594
v -1.3329593 1.7427382 1.4456984
v -1.1752479 1.7405015 1.668497
v -1.3556782 1.770466 1.6133828
v -1.395647 1.7845542 1.7097764
v -1.3480861 1.8284009 1.9420669
v -1.1637853 1.8045042 2.121604
v -1.2907205 1.8741397 2.1813316
v -1.2239101 1.91728 2.4019992
v -1.1587944 1.9426506 2.5216053
v -1.1323539 1.6028955 0.8638202
v -1.039087 1.7103359 1.1444806
v -1.0993017 1.9251068 2.3977416
v -1.0427834 1.8897129 2.1728597
v -0.9965531 1.850481 1.9300549
v -0.9597897 1.811931 1.6948831
v -1.0041453 1.7925462 1.6013708
v -1.0345684 1.7614807 1.4355024
v -1.1646681 1.5763184 0.679065
v -1.1461809 1.6233809 0.68883765
v -1.079286 1.6018329 0.5391367
v -1.1065508 1.5434736 0.513474
v -1.00819 1.5633433 0.4762862
v -1.0148214 1.5990721 0.49794787
v -0.9068316 1.574196 0.45709547
v -0.9639199 1.6048231 0.51082844
v -0.9537962 1.6167376 0.5750526
v -1.1255182 1.5207705 0.39096877
v -1.1661907 1.5360233 0.19660024
v -1.1813656 1.513562 0.073986396
v -1.1889764 1.4928144 -0.04179556
v -1.1584263 1.4565719 -0.2613107
v -1.1278678 1.4496195 -0.31314558
v -1.2259234 1.4303981 -0.3845771
v -1.3205266 1.4375185 -0.30656242
v -1.1172246 1.5643368 0.33941227
v -0.9991209 1.5543721 0.42135555
v -0.99641454 1.580863 0.38645285
v -0.8910887 1.5633421 0.38875914
v -0.9085744 1.5791448 0.342029
v -0.8790079 1.5714256 0.286195
v -1.5999986 1.5499995 0.3999994
v -1.5213864 1.5237525 0.41029635
v -1.5413284 1.5298245 0.30882648
v -1.5025135 1.5367804 0.4774499
v -1.5599988 1.5784533 0.5299993
v -1.4533234 1.5853617 0.5921215
v -0.8399994 1.5961739 0.3999994
v -0.8790079 1.5714256 0.286195
v -0.8910887 1.5633421 0.38875914
v -0.9068316 1.574196 0.45709547
v -0.86999935 1.6099993 0.4999993
v -0.9537962 1.6167376 0.5750526
v -0.98548627 1.6811998 0.9565725
v -1.0563887 1.6645595 0.88922703
v -1.1304213 1.6409696 0.7833272
v -1.2284143 1.5168781 -0.29850543
v -1.2260228 1.5033832 -0.25332445
v -1.2876234 1.4484569 -0.25689602
v -1.3205266 1.4375185 -0.30656242
v -1.246988 1.4891707 -0.039813288
v -1.2200443 1.5215898 -0.044894237
v -1.2492423 1.5092986 0.07630575
v -1.2159523 1.5606674 0.14669105
v -1.2587337 1.5302105 0.19976243
v -1.2259234 1.4303981 -0.3845771
v -1.3010304 1.5527917 0.34569293
v -1.2907807 1.6112868 0.3788314
v -1.2139481 1.598375 0.27465877
v -1.2126622 1.6807613 0.46373302
v -1.4154202 1.5910908 0.4244993
v -1.419478 1.5542898 0.40090892
v -1.5247304 1.5723747 0.40180323
v -1.5092305 1.5414169 0.3625534
v -1.3040632 1.6319642 0.5024386
v -1.4038299 1.6013597 0.4787241
v -1.3296897 1.5861048 0.54769295
v -1.3959537 1.5751327 0.5109712
v -1.5058578 1.5854028 0.4689568
v -1.4461808 1.5745317 0.52730733
v -1.4533234 1.5853617 0.5921215
v -1.5413284 1.5298245 0.30882648
v -1.2383308 1.657226 0.6665055
v -1.2559899 1.6164836 0.69258976
v -1.2621282 1.6956407 0.8504702
v -1.2069232 1.6808035 0.63176644
v -1.2015686 1.7267 0.87283707
v -1.1959713 1.7355549 1.0529264
v -1.2673626 1.6323683 0.7880066
v -1.3363905 1.6469723 0.8987947
v -1.4040719 1.6549078 0.9708755
v -1.3418819 1.691317 1.1548271
v -1.1916198 1.7687601 1.2413111
v -1.3329593 1.7427382 1.4456984
v -1.1821576 1.840964 1.6509486
v -1.3556782 1.770466 1.6133828
v -1.395647 1.7845542 1.7097764
v -1.3480861 1.8284009 1.9420669
v -1.1728121 1.9357458 2.0986793
v -1.2907205 1.8741397 2.1813316
v -1.2239101 1.91728 2.4019992
v -1.1587944 1.9426506 2.5216053
v -1.1392639 1.7033579 0.84627193
v -1.039087 1.7103359 1.1444806
v -1.0993017 1.9251068 2.3977416
v -1.0427834 1.8897129 2.1728597
v -0.9965531 1.850481 1.9300549
v -0.9597897 1.811931 1.6948831
v -1.0041453 1.7925462 1.6013708
v -1.0345684 1.7614807 1.4355024
v -1.1705259 1.661485 0.6641886
v -1.1461809 1.6233809 0.68883765
v -1.079286 1.6018329 0.5391367
v -1.1134605 1.6439362 0.49592575
v -1.0124953 1.6259398 0.46535215
v -1.0148214 1.5990721 0.49794787
v -0.91017586 1.6228185 0.44860235
v -0.9639199 1.6048231 0.51082844
v -0.9537962 1.6167376 0.5750526
v -1.1324279 1.621233 0.37342048
v -1.1172246 1.5643368 0.33941227
v -1.1661907 1.5360233 0.19660024
v -1.1813656 1.513562 0.073986396
v -1.1889764 1.4928144 -0.04179556
v -1.1584263 1.4565719 -0.2613107
v -1.1278678 1.4496195 -0.31314558
v -1.0034263 1.6169686 0.4104215
v -0.99641454 1.580863 0.38645285
v -0.8944329 1.6119646 0.38026598
v -0.9085744 1.5791448 0.342029
v -0.8790079 1.5714256 0.286195
v -1.5999986 1.5499995 0.3999994
v -1.5413284 1.5298245 0.30882648
v -1.5247304 1.5723747 0.40180323
v -1.5058578 1.5854028 0.4689568
v -1.5599988 1.5784533 0.5299993
v -1.4533234 1.5853617 0.5921215
v -0.8399994 1.5961739 0.3999994
v -0.8944329 1.6119646 0.38026598
v -0.8790079 1.5714256 0.286195
v -0.86999935 1.6099993 0.4999993
v -0.91017586 1.6228185 0.44860235
v -0.9537962 1.6167376 0.5750526
v -0.98548627 1.6811998 0.9565725
v -1.0563887 1.6645595 0.88922703
v -1.1304213 1.6409696 0.7833272
vt 0.79481345 0.9674957
vt 0.8162973 0.97436994
vt 0.8092206 0.9594816
vt 0.79481345 0.95530814
vt 0.8037226 0.90646476
vt 0.79481345 0.90610766
vt 0.80523753 0.88146627
vt 0.79481345 0.86521727
vt 0.80902576 0.8557536
vt 0.79481345 0.8355991
vt 0.8191325 0.8058327
vt 0.79481345 0.7776935
vt 0.8230415 0.8182559
vt 0.85808545 0.7946771
vt 0.8597858 0.8032568
vt 0.89161193 0.80278736
vt 0.88705957 0.8153989
vt 0.8240855 0.7697331
vt 0.8549128 0.77866614
vt 0.83326936 0.75933087
vt 0.8533461 0.77075875
vt 0.88629556 0.78291357
vt 0.86887705 0.7664734
vt 0.8715287 0.74754596
vt 0.8965298 0.83146924
vt 0.8052267 0.72137886
vt 0.8116775 0.71611935
vt 0.8136825 0.66729504
vt 0.79481345 0.72986954
vt 0.79481345 0.65897995
vt 0.79481345 0.60728675
vt 0.8158442 0.6882638
vt 0.837815 0.6564803
vt 0.8533461 0.64112395
vt 0.8469062 0.58148474
vt 0.79481345 0.5520222
vt 0.84614867 0.49613288
vt 0.79481345 0.43185112
vt 0.8488003 0.4472074
vt 0.857134 0.41935194
vt 0.8488003 0.3507847
vt 0.79481345 0.2997164
vt 0.8328905 0.28007478
vt 0.8139503 0.21472163
vt 0.79481345 0.1790096
vt 0.7759444 0.66729504
vt 0.7427206 0.58148474
vt 0.7756765 0.21472163
vt 0.7567363 0.28007478
vt 0.7408265 0.3507847
vt 0.7324928 0.41935194
vt 0.7408265 0.4472074
vt 0.74347824 0.49613288
vt 0.7844002 0.72137886
vt 0.7779494 0.71611935
vt 0.75635743 0.75933087
vt 0.76554143 0.7697331
vt 0.7347139 0.77866614
vt 0.7362808 0.77075875
vt 0.70333123 0.78291357
vt 0.72075 0.7664734
vt 0.7180982 0.74754596
vt 0.7704942 0.8058327
vt 0.780601 0.8557536
vt 0.7843891 0.88146627
vt 0.78590417 0.90646476
vt 0.7804061 0.9594816
vt 0.7733295 0.97436994
vt 0.79481345 0.9962906
vt 0.8162973 0.97436994
vt 0.7665851 0.8182559
vt 0.73154116 0.7946771
vt 0.72984123 0.8032568
vt 0.6980151 0.80278736
vt 0.70256734 0.8153989
vt 0.69309723 0.83146924
vt 0.39255893 0.83467674
vt 0.36264026 0.8311188
vt 0.36812603 0.8837809
vt 0.37306976 0.7662703
vt 0.40255153 0.7599968
vt 0.38550913 0.70653707
vt 0.011736095 0.83467674
vt 0.03741461 0.8837809
vt 0.040154696 0.8320091
vt 0.030266821 0.755122
vt 0.005581677 0.7571214
vt 0.04116273 0.68916357
vt 0.7362808 0.64112395
vt 0.75181204 0.6564803
vt 0.77378243 0.6882638
vt 0.2027703 0.9576682
vt 0.2027703 0.94548064
vt 0.18836312 0.94965404
vt 0.18128642 0.9645423
vt 0.19386119 0.89663726
vt 0.2027703 0.8962801
vt 0.19234613 0.8716388
vt 0.2027703 0.8553898
vt 0.18855792 0.8459261
vt 0.2027703 0.9864631
vt 0.17454222 0.80842835
vt 0.17845115 0.7960052
vt 0.2027703 0.8257716
vt 0.20277028 0.767866
vt 0.13949814 0.7848496
vt 0.13779804 0.7934293
vt 0.10597184 0.7929598
vt 0.11052414 0.8055713
vt 0.17349833 0.7599055
vt 0.14267084 0.76883864
vt 0.16431439 0.7495033
vt 0.14423764 0.76093125
vt 0.111288 0.7730861
vt 0.12870672 0.75664586
vt 0.12605512 0.73771846
vt 0.10105392 0.82164174
vt 0.1923571 0.71155137
vt 0.18590626 0.70629185
vt 0.18390137 0.65746754
vt 0.20277028 0.72004205
vt 0.2027703 0.6491524
vt 0.2027703 0.5974592
vt 0.18173948 0.6784363
vt 0.15976882 0.64665276
vt 0.14423764 0.6312964
vt 0.15067741 0.57165724
vt 0.2027703 0.5421947
vt 0.15143508 0.48630533
vt 0.2027703 0.42202362
vt 0.14878345 0.43737984
vt 0.14044976 0.4095244
vt 0.14878345 0.34095716
vt 0.2027703 0.2898889
vt 0.16469324 0.27024725
vt 0.18363357 0.20489414
vt 0.2027703 0.16918208
vt 0.22163934 0.65746754
vt 0.2548632 0.57165724
vt 0.2219072 0.20489414
vt 0.24084735 0.27024725
vt 0.2567572 0.34095716
vt 0.2650909 0.4095244
vt 0.2567572 0.43737984
vt 0.2541056 0.48630533
vt 0.21318352 0.71155137
vt 0.2196343 0.70629185
vt 0.24122629 0.7495033
vt 0.23204222 0.7599055
vt 0.26286986 0.76883864
vt 0.26130295 0.76093125
vt 0.29425243 0.7730861
vt 0.27683383 0.75664586
vt 0.27948555 0.73771846
vt 0.22708943 0.7960052
vt 0.23099843 0.80842835
vt 0.21698266 0.8459261
vt 0.21319458 0.8716388
vt 0.21167952 0.89663726
vt 0.21717754 0.94965404
vt 0.22425419 0.9645423
vt 0.26604265 0.7848496
vt 0.26774254 0.7934293
vt 0.29956868 0.7929598
vt 0.2950164 0.8055713
vt 0.30448663 0.82164174
vt 0.011736113 0.83467674
vt 0.037414603 0.8837809
vt 0.040154688 0.8320091
vt 0.030266818 0.755122
vt 0.00558166 0.7571214
vt 0.041162755 0.68916357
vt 0.39255893 0.83467674
vt 0.36264023 0.8311188
vt 0.368126 0.8837809
vt 0.40255153 0.7599968
vt 0.37306973 0.7662703
vt 0.38550913 0.70653707
vt 0.26130295 0.6312964
vt 0.24577174 0.64665276
vt 0.2238012 0.6784363
vn 0.06533802 -0.99428385 0.08444239
vn -0.5511819 -0.66674834 0.5016424
vn -0.58730876 -0.7332547 0.34264562
vn 0.07089946 -0.9229239 0.37839755
vn -0.623664 -0.75608736 0.19843155
vn 0.068931006 -0.969516 0.23513259
vn -0.65906787 -0.74272156 0.11829691
vn 0.061060347 -0.9970778 -0.045907833
vn -0.58128 -0.81002045 -0.07733383
vn 0.057723343 -0.9898117 -0.13015668
vn -0.34344813 -0.93417025 -0.096795104
vn 0.06860973 -0.97339904 0.21860245
vn -0.51450145 -0.82993734 -0.21562068
vn -0.08326939 -0.9929148 -0.08477244
vn -0.063445576 -0.8508601 -0.5215473
vn -0.15617684 -0.98492473 0.074377954
vn 0.3259105 -0.8697573 -0.37054643
vn -0.38721237 -0.8524307 0.35132384
vn -0.099686846 -0.9188449 0.38182023
vn -0.5921517 -0.57126987 0.5683372
vn -0.17455901 -0.60776293 0.7746957
vn -0.17915353 -0.9293289 0.3228804
vn 0.18965736 -0.8182915 0.5426132
vn -0.056070592 -0.9104611 0.40977633
vn -0.19915757 -0.9797736 -0.019493999
vn -0.5590572 -0.79135174 0.2474216
vn -0.8286818 -0.5206757 0.20538558
vn -0.4823729 -0.86609304 0.13114591
vn 0.06996243 -0.9523448 0.2968916
vn 0.06822295 -0.9774605 0.1997914
vn 0.06850911 -0.9745165 0.21359782
vn -0.8593345 -0.503465 -0.08981685
vn -0.29273805 -0.94979 0.11046943
vn -0.18691467 -0.97050744 0.15224424
vn -0.23481087 -0.9493854 0.20864126
vn 0.067856245 -0.98077023 0.18298976
vn -0.24171592 -0.956728 0.16200309
vn 0.06733474 -0.98475087 0.16041112
vn -0.23065026 -0.9622085 0.1447595
vn -0.2165926 -0.96275514 0.16183345
vn -0.2290885 -0.95738125 0.17589633
vn 0.0688217 -0.97089887 0.22938815
vn -0.32226884 -0.902028 0.28720763
vn -0.30193502 -0.9051267 0.2993008
vn 0.0701277 -0.94866616 0.30840668
vn 0.59462786 -0.7984464 0.09434604
vn 0.36526453 -0.91169435 0.18813625
vn 0.43233764 -0.8590068 0.2742105
vn 0.4512552 -0.85344255 0.26077667
vn 0.35837388 -0.9204823 0.15582238
vn 0.3457205 -0.92743593 0.14261852
vn 0.35840553 -0.9252094 0.1246313
vn 0.36984614 -0.9183152 0.14110617
vn 0.66909665 -0.7142111 0.20545591
vn 0.8992911 -0.41214082 0.14634049
vn 0.6961684 -0.4903488 0.5243162
vn 0.51369864 -0.7958444 0.32053939
vn 0.23947388 -0.8975415 0.37023175
vn 0.30141765 -0.57786375 0.7584332
vn 0.28184 -0.91149175 0.29958126
vn -0.048560716 -0.8332548 0.5507524
vn 0.089720026 -0.92496413 0.36931244
vn 0.450127 -0.8843257 -0.12391058
vn 0.6713449 -0.7313438 -0.12013403
vn 0.7532268 -0.6540212 0.070040725
vn 0.72530264 -0.6713637 0.15233801
vn 0.69627106 -0.6526362 0.29878533
vn 0.6013348 -0.79704714 -0.055788834
vn 0.042106055 -0.9029798 -0.42761508
vn -0.3734266 -0.8483068 -0.37540394
vn 0.5983327 -0.760041 -0.2536447
vn 0.20075586 -0.97507495 -0.09447745
vn 0.13368322 -0.83847684 -0.5282853
vn 0.24482858 -0.96956116 -0.0031983287
vn -0.23908861 -0.9052428 -0.3512438
vn 0.32173464 -0.9461194 -0.036670938
vn -0.34520113 -0.915444 0.20687796
vn -0.15617684 -0.98492473 0.074377954
vn -0.19915757 -0.9797736 -0.019493999
vn -0.17915353 -0.9293289 0.3228804
vn -0.29143026 -0.8834476 0.3668634
vn -0.056070592 -0.9104611 0.40977633
vn 0.509436 -0.84051865 0.18440019
vn 0.32173464 -0.9461194 -0.036670938
vn 0.24482858 -0.96956116 -0.0031983287
vn 0.28184 -0.91149175 0.29958126
vn 0.40218627 -0.8450508 0.35232845
vn 0.089720026 -0.92496413 0.36931244
vn 0.3166616 -0.9388771 0.13503745
vn 0.41597846 -0.9052746 0.08625408
vn 0.90740883 -0.39249653 -0.15018533
vn -0.06933642 0.96376616 -0.25757974
vn -0.061166845 0.99720085 0.043003093
vn -0.6873303 0.72091603 0.0886404
vn -0.6095066 0.7347167 -0.29781407
vn -0.72304106 0.68869644 -0.053934216
vn -0.06598353 0.99201363 -0.107494995
vn -0.75448596 0.6444932 -0.124013714
vn -0.07092141 0.9218135 -0.38109043
vn -0.6818077 0.6515335 -0.33262953
vn -0.06833865 0.70279217 -0.70810527
vn -0.61507577 0.63230264 -0.47103634
vn -0.46219298 0.79226696 -0.39836004
vn -0.071306266 0.88616836 -0.45784387
vn -0.06643287 0.9900114 -0.12435497
vn -0.21247673 0.88564116 -0.4129084
vn -0.1638204 0.6084988 -0.77646124
vn -0.15346552 0.9371811 -0.31327277
vn 0.21596292 0.72880155 -0.6497755
vn -0.5050972 0.86149776 0.05194526
vn -0.22973207 0.9718872 0.051560204
vn -0.6758411 0.6454786 0.35580358
vn -0.27170265 0.80461186 0.52799374
vn -0.17446038 0.98238534 -0.06695162
vn 0.06659836 0.97088766 0.23009115
vn 0.0195331 0.99977726 -0.008000474
vn -0.14822489 0.9090048 -0.38953778
vn -0.66484386 0.74668056 -0.021232521
vn -0.89506173 0.44442064 0.036808066
vn -0.59609306 0.7872849 -0.15765631
vn -0.0641121 0.99698955 -0.04360651
vn -0.06692034 0.9873969 -0.14341909
vn -0.06656523 0.9893505 -0.12943974
vn -0.91629547 0.32469174 -0.23447351
vn -0.41883424 0.88350415 -0.20975745
vn -0.3176994 0.9309701 -0.17989412
vn -0.36366 0.923953 -0.1185838
vn -0.067332886 0.98476285 -0.1603385
vn -0.37039497 0.91414005 -0.16478965
vn -0.06785464 0.9807839 -0.18291749
vn -0.3597585 0.9148989 -0.18312258
vn -0.3462982 0.9230379 -0.16756704
vn -0.35829222 0.921115 -0.1522296
vn -0.06614153 0.9913492 -0.11336593
vn -0.4458497 0.89471143 -0.02663491
vn -0.42639422 0.90438193 -0.016772684
vn -0.063727684 0.99746907 -0.03153221
vn 0.48091057 0.8549336 -0.19445713
vn 0.23641822 0.96164495 -0.13908793
vn 0.30788037 0.95050365 -0.041864153
vn 0.3276768 0.94329834 -0.05306753
vn 0.22917195 0.9580146 -0.1723028
vn 0.21601671 0.95835775 -0.18678094
vn 0.22929932 0.95189875 -0.20325026
vn 0.24116881 0.9525536 -0.18568593
vn 0.5633119 0.8238238 -0.063199304
vn 0.83291256 0.5529577 -0.022238001
vn 0.61248183 0.7264009 0.3117813
vn 0.3958159 0.91808605 0.021161193
vn 0.109429434 0.9931906 0.03997146
vn 0.20427482 0.8345082 0.51173025
vn 0.12902057 0.99111146 -0.03242974
vn -0.17162155 0.9559247 0.23823117
vn -0.056518678 0.9979948 0.02849547
vn 0.33138368 0.8421134 -0.425476
vn 0.49776173 0.70220214 -0.5090633
vn 0.5708217 0.7302144 -0.37543237
vn 0.6578165 0.7332116 -0.1722733
vn 0.6259324 0.77343553 -0.10003095
vn 0.59625524 0.8015451 0.0447773
vn 0.49122775 0.80385625 -0.3354257
vn 0.071548946 0.9034814 -0.4226134
vn 0.03330908 0.62087923 -0.7831982
vn 0.084420875 0.93712574 -0.3386273
vn -0.3490368 0.69331235 -0.6304691
vn 0.13353886 0.9179019 -0.37366235
vn -0.2686925 0.942291 -0.19973
vn -0.14822489 0.9090048 -0.38953778
vn -0.15346552 0.9371811 -0.31327277
vn -0.17446038 0.98238534 -0.06695162
vn -0.1879119 0.98099077 -0.048437804
vn 0.0195331 0.99977726 -0.008000474
vn 0.33874637 0.93248594 -0.12538297
vn 0.084420875 0.93712574 -0.3386273
vn 0.13353886 0.9179019 -0.37366235
vn 0.24423681 0.96906316 0.03556587
vn 0.12902057 0.99111146 -0.03242974
vn -0.056518678 0.9979948 0.02849547
vn 0.18587935 0.9626002 -0.1971035
vn 0.28988764 0.92801905 -0.23397821
vn 0.8504486 0.4356648 -0.29484475
g sword_adjusted_0
f 3/3/3 2/2/2 1/1/1
f 4/4/4 3/3/3 1/1/1
f 5/5/5 3/3/3 4/4/4
f 6/6/6 5/5/5 4/4/4
f 7/7/7 5/5/5 6/6/6
f 8/8/8 7/7/7 6/6/6
f 9/9/9 7/7/7 8/8/8
f 9/9/9 8/8/8 10/10/10
f 10/10/10 11/11/11 9/9/9
f 12/12/12 11/11/11 10/10/10
f 11/11/11 13/13/13 9/9/9
f 13/13/13 11/11/11 14/14/14
f 15/15/15 13/13/13 14/14/14
f 15/15/15 14/14/14 16/16/16
f 17/17/17 15/15/15 16/16/16
f 18/18/18 11/11/11 12/12/12
f 11/11/11 18/18/18 19/19/19
f 14/14/14 11/11/11 19/19/19
f 19/19/19 18/18/18 20/20/20
f 21/21/21 19/19/19 20/20/20
f 22/22/22 19/19/19 21/21/21
f 14/14/14 19/19/19 22/22/22
f 16/16/16 14/14/14 22/22/22
f 23/23/23 22/22/22 21/21/21
f 23/23/23 24/24/24 22/22/22
f 25/25/25 17/17/17 16/16/16
f 20/20/20 18/18/18 26/26/26
f 27/27/27 20/20/20 26/26/26
f 27/27/27 26/26/26 28/28/28
f 28/28/28 26/26/26 29/29/29
f 26/26/26 18/18/18 29/29/29
f 30/30/30 28/28/28 29/29/29
f 31/31/31 28/28/28 30/30/30
f 32/32/32 27/27/27 28/28/28
f 33/33/33 32/32/32 28/28/28
f 33/33/33 28/28/28 31/31/31
f 34/34/34 33/33/33 31/31/31
f 35/35/35 34/34/34 31/31/31
f 36/36/36 35/35/35 31/31/31
f 37/37/37 35/35/35 36/36/36
f 37/37/37 36/36/36 38/38/38
f 39/39/39 37/37/37 38/38/38
f 38/38/38 40/40/40 39/39/39
f 40/40/40 38/38/38 41/41/41
f 38/38/38 42/42/42 41/41/41
f 41/41/41 42/42/42 43/43/43
f 43/43/43 42/42/42 44/44/44
f 42/42/42 45/45/45 44/44/44
f 46/46/46 31/31/31 30/30/30
f 47/47/47 36/36/36 31/31/31
f 45/45/45 42/42/42 48/48/48
f 42/42/42 49/49/49 48/48/48
f 42/42/42 50/50/50 49/49/49
f 42/42/42 38/38/38 50/50/50
f 38/38/38 51/51/51 50/50/50
f 51/51/51 38/38/38 52/52/52
f 53/53/53 52/52/52 38/38/38
f 47/47/47 53/53/53 36/36/36
f 36/36/36 53/53/53 38/38/38
f 46/46/46 30/30/30 29/29/29
f 54/54/54 46/46/46 29/29/29
f 54/54/54 55/55/55 46/46/46
f 56/56/56 55/55/55 54/54/54
f 57/57/57 56/56/56 54/54/54
f 57/57/57 54/54/54 29/29/29
f 57/57/57 58/58/58 56/56/56
f 58/58/58 59/59/59 56/56/56
f 58/58/58 60/60/60 59/59/59
f 60/60/60 61/61/61 59/59/59
f 62/62/62 61/61/61 60/60/60
f 57/57/57 63/63/63 58/58/58
f 63/63/63 57/57/57 12/12/12
f 12/12/12 57/57/57 29/29/29
f 18/18/18 12/12/12 29/29/29
f 63/63/63 12/12/12 10/10/10
f 64/64/64 63/63/63 10/10/10
f 10/10/10 8/8/8 64/64/64
f 65/65/65 64/64/64 8/8/8
f 65/65/65 8/8/8 6/6/6
f 66/66/66 65/65/65 6/6/6
f 66/66/66 6/6/6 4/4/4
f 67/67/67 66/66/66 4/4/4
f 67/67/67 4/4/4 1/1/1
f 68/68/68 67/67/67 1/1/1
f 68/68/68 1/1/1 69/69/69
f 1/1/1 70/70/70 69/69/69
f 64/64/64 71/71/71 63/63/63
f 63/63/63 71/71/71 72/72/72
f 71/71/71 73/73/73 72/72/72
f 72/72/72 73/73/73 74/74/74
f 73/73/73 75/75/75 74/74/74
f 63/63/63 72/72/72 58/58/58
f 72/72/72 74/74/74 60/60/60
f 58/58/58 72/72/72 60/60/60
f 75/75/75 76/76/76 74/74/74
f 79/79/79 78/78/78 77/77/77
f 78/78/78 80/80/80 77/77/77
f 80/80/80 81/81/81 77/77/77
f 80/80/80 82/82/82 81/81/81
f 85/85/85 84/84/84 83/83/83
f 85/85/85 83/83/83 86/86/86
f 83/83/83 87/87/87 86/86/86
f 86/86/86 87/87/87 88/88/88
f 89/89/89 47/47/47 31/31/31
f 90/90/90 89/89/89 31/31/31
f 46/46/46 90/90/90 31/31/31
f 91/91/91 90/90/90 46/46/46
f 55/55/55 91/91/91 46/46/46
f 94/94/94 93/93/93 92/92/92
f 95/95/95 94/94/94 92/92/92
f 94/94/94 96/96/96 93/93/93
f 96/96/96 97/97/97 93/93/93
f 96/96/96 98/98/98 97/97/97
f 98/98/98 99/99/99 97/97/97
f 98/98/98 100/100/100 99/99/99
f 95/95/95 92/92/92 101/101/101
f 99/99/99 100/100/100 102/102/102
f 102/102/102 103/103/103 99/99/99
f 103/103/103 104/104/104 99/99/99
f 103/103/103 105/105/105 104/104/104
f 103/103/103 102/102/102 106/106/106
f 102/102/102 107/107/107 106/106/106
f 106/106/106 107/107/107 108/108/108
f 107/107/107 109/109/109 108/108/108
f 103/103/103 110/110/110 105/105/105
f 103/103/103 106/106/106 111/111/111
f 110/110/110 103/103/103 111/111/111
f 110/110/110 111/111/111 112/112/112
f 111/111/111 113/113/113 112/112/112
f 111/111/111 114/114/114 113/113/113
f 106/106/106 108/108/108 114/114/114
f 111/111/111 106/106/106 114/114/114
f 114/114/114 115/115/115 113/113/113
f 116/116/116 115/115/115 114/114/114
f 109/109/109 117/117/117 108/108/108
f 110/110/110 112/112/112 118/118/118
f 112/112/112 119/119/119 118/118/118
f 118/118/118 119/119/119 120/120/120
f 118/118/118 120/120/120 121/121/121
f 110/110/110 118/118/118 121/121/121
f 120/120/120 122/122/122 121/121/121
f 120/120/120 123/123/123 122/122/122
f 119/119/119 124/124/124 120/120/120
f 124/124/124 125/125/125 120/120/120
f 120/120/120 125/125/125 123/123/123
f 125/125/125 126/126/126 123/123/123
f 126/126/126 127/127/127 123/123/123
f 127/127/127 128/128/128 123/123/123
f 127/127/127 129/129/129 128/128/128
f 128/128/128 129/129/129 130/130/130
f 129/129/129 131/131/131 130/130/130
f 132/132/132 130/130/130 131/131/131
f 130/130/130 132/132/132 133/133/133
f 134/134/134 130/130/130 133/133/133
f 134/134/134 133/133/133 135/135/135
f 134/134/134 135/135/135 136/136/136
f 137/137/137 134/134/134 136/136/136
f 123/123/123 138/138/138 122/122/122
f 128/128/128 139/139/139 123/123/123
f 134/134/134 137/137/137 140/140/140
f 141/141/141 134/134/134 140/140/140
f 142/142/142 134/134/134 141/141/141
f 130/130/130 134/134/134 142/142/142
f 143/143/143 130/130/130 142/142/142
f 130/130/130 143/143/143 144/144/144
f 144/144/144 145/145/145 130/130/130
f 145/145/145 139/139/139 128/128/128
f 145/145/145 128/128/128 130/130/130
f 138/138/138 146/146/146 121/121/121
f 122/122/122 138/138/138 121/121/121
f 147/147/147 146/146/146 138/138/138
f 147/147/147 148/148/148 146/146/146
f 148/148/148 149/149/149 146/146/146
f 146/146/146 149/149/149 121/121/121
f 150/150/150 149/149/149 148/148/148
f 151/151/151 150/150/150 148/148/148
f 152/152/152 150/150/150 151/151/151
f 153/153/153 152/152/152 151/151/151
f 153/153/153 154/154/154 152/152/152
f 155/155/155 149/149/149 150/150/150
f 149/149/149 155/155/155 105/105/105
f 149/149/149 105/105/105 121/121/121
f 105/105/105 110/110/110 121/121/121
f 105/105/105 155/155/155 104/104/104
f 104/104/104 155/155/155 156/156/156
f 99/99/99 104/104/104 156/156/156
f 156/156/156 157/157/157 99/99/99
f 157/157/157 158/158/158 99/99/99
f 99/99/99 158/158/158 97/97/97
f 158/158/158 159/159/159 97/97/97
f 97/97/97 159/159/159 93/93/93
f 159/159/159 160/160/160 93/93/93
f 93/93/93 160/160/160 92/92/92
f 160/160/160 161/161/161 92/92/92
f 92/92/92 161/161/161 101/101/101
f 156/156/156 155/155/155 162/162/162
f 163/163/163 156/156/156 162/162/162
f 163/163/163 162/162/162 164/164/164
f 165/165/165 163/163/163 164/164/164
f 164/164/164 162/162/162 152/152/152
f 162/162/162 150/150/150 152/152/152
f 162/162/162 155/155/155 150/150/150
f 166/166/166 165/165/165 164/164/164
f 169/169/169 168/168/168 167/167/167
f 169/169/169 167/167/167 170/170/170
f 167/167/167 171/171/171 170/170/170
f 170/170/170 171/171/171 172/172/172
f 175/175/175 174/174/174 173/173/173
f 173/173/173 174/174/174 176/176/176
f 174/174/174 177/177/177 176/176/176
f 176/176/176 177/177/177 178/178/178
f 139/139/139 179/179/179 123/123/123
f 179/179/179 180/180/180 123/123/123
f 180/180/180 138/138/138 123/123/123
f 180/180/180 181/181/181 138/138/138
f 181/181/181 147/147/147 138/138/138
